<svg xmlns="http://www.w3.org/2000/svg" width="44.445" height="44" viewBox="0 0 44.445 44">
  <g id="beach-lounging-icon" transform="translate(-791.396 -3291)">
    <path id="Path_314" data-name="Path 314" d="M829.353,3309.314c1.679-6.264.041-11.01-4.159-14.542" fill="none" stroke="#fff" stroke-linecap="round" stroke-linejoin="round" stroke-width="2"/>
    <path id="Path_315" data-name="Path 315" d="M814.321,3305.286c1.678-6.264,5.469-9.556,10.873-10.514" fill="none" stroke="#fff" stroke-linecap="round" stroke-linejoin="round" stroke-width="2"/>
    <path id="Path_316" data-name="Path 316" d="M819.332,3306.629c1.119-5.743,2.6-8.284,5.862-11.857" fill="none" stroke="#fff" stroke-linecap="round" stroke-linejoin="round" stroke-width="2"/>
    <path id="Path_317" data-name="Path 317" d="M824.342,3307.971c1.9-5.532,1.893-8.472.852-13.2" fill="none" stroke="#fff" stroke-linecap="round" stroke-linejoin="round" stroke-width="2"/>
    <line id="Line_68" data-name="Line 68" y1="1.342" x2="0.359" transform="translate(825.194 3293.431)" fill="none" stroke="#fff" stroke-linecap="round" stroke-linejoin="round" stroke-width="2"/>
    <line id="Line_69" data-name="Line 69" x1="3.605" y2="13.456" transform="translate(818.903 3304.794)" fill="none" stroke="#fff" stroke-linecap="round" stroke-linejoin="round" stroke-width="2"/>
    <path id="Path_318" data-name="Path 318" d="M812.486,3302.109a2.593,2.593,0,0,0-3.176,1.834,12.969,12.969,0,1,1,25.054,6.714,5.8,5.8,0,0,1-6.845-4.52,2.594,2.594,0,1,1-5.011-1.343,2.594,2.594,0,1,1-5.011-1.342,2.594,2.594,0,0,1-5.011-1.343Z" fill="none" stroke="#fff" stroke-linecap="round" stroke-linejoin="round" stroke-width="2"/>
    <line id="Line_70" data-name="Line 70" y1="0.75" transform="translate(798.81 3303.25)" fill="none" stroke="#fff" stroke-linecap="round" stroke-linejoin="round" stroke-width="2"/>
    <line id="Line_71" data-name="Line 71" y1="0.75" transform="translate(798.81 3292)" fill="none" stroke="#fff" stroke-linecap="round" stroke-linejoin="round" stroke-width="2"/>
    <line id="Line_72" data-name="Line 72" x1="0.75" transform="translate(804.06 3298)" fill="none" stroke="#fff" stroke-linecap="round" stroke-linejoin="round" stroke-width="2"/>
    <line id="Line_73" data-name="Line 73" x1="0.75" transform="translate(792.81 3298)" fill="none" stroke="#fff" stroke-linecap="round" stroke-linejoin="round" stroke-width="2"/>
    <line id="Line_74" data-name="Line 74" x1="0.53" y1="0.53" transform="translate(802.522 3301.712)" fill="none" stroke="#fff" stroke-linecap="round" stroke-linejoin="round" stroke-width="2"/>
    <line id="Line_75" data-name="Line 75" x1="0.53" y1="0.53" transform="translate(794.567 3293.757)" fill="none" stroke="#fff" stroke-linecap="round" stroke-linejoin="round" stroke-width="2"/>
    <line id="Line_76" data-name="Line 76" x1="0.53" y2="0.53" transform="translate(802.522 3293.757)" fill="none" stroke="#fff" stroke-linecap="round" stroke-linejoin="round" stroke-width="2"/>
    <line id="Line_77" data-name="Line 77" x1="0.53" y2="0.53" transform="translate(794.567 3301.712)" fill="none" stroke="#fff" stroke-linecap="round" stroke-linejoin="round" stroke-width="2"/>
    <circle id="Ellipse_12" data-name="Ellipse 12" cx="3" cy="3" r="3" transform="translate(795.81 3295)" stroke-width="2" stroke="#fff" stroke-linecap="round" stroke-linejoin="round" fill="none"/>
    <path id="Path_319" data-name="Path 319" d="M834.06,3327.272c0-1.656-9.234-3-20.625-3s-20.625,1.344-20.625,3" fill="none" stroke="#fff" stroke-linecap="round" stroke-linejoin="round" stroke-width="2"/>
    <path id="Path_320" data-name="Path 320" d="M804.81,3324.25h3l1.5-3h-6Z" fill="none" stroke="#fff" stroke-linecap="round" stroke-linejoin="round" stroke-width="2"/>
    <path id="Path_321" data-name="Path 321" d="M822.81,3324.25h3l1.5-3h-6Z" fill="none" stroke="#fff" stroke-linecap="round" stroke-linejoin="round" stroke-width="2"/>
    <line id="Line_78" data-name="Line 78" x1="1.5" transform="translate(801.81 3321.25)" fill="none" stroke="#fff" stroke-linecap="round" stroke-linejoin="round" stroke-width="2"/>
    <line id="Line_79" data-name="Line 79" x1="1.5" transform="translate(827.31 3321.25)" fill="none" stroke="#fff" stroke-linecap="round" stroke-linejoin="round" stroke-width="2"/>
    <line id="Line_80" data-name="Line 80" x2="2.121" y2="3.879" transform="translate(825.188 3317.371)" fill="none" stroke="#fff" stroke-linecap="round" stroke-linejoin="round" stroke-width="2"/>
    <path id="Path_322" data-name="Path 322" d="M806.31,3318.25h13.5l3.878-3.879a3,3,0,0,1,4.243,0l.129.129-6.75,6.75h-18A3,3,0,0,1,806.31,3318.25Z" fill="none" stroke="#fff" stroke-linecap="round" stroke-linejoin="round" stroke-width="2"/>
    <line id="Line_81" data-name="Line 81" x1="1.312" y2="1.312" transform="translate(828.06 3313.188)" fill="none" stroke="#fff" stroke-linecap="round" stroke-linejoin="round" stroke-width="2"/>
    <path id="Path_323" data-name="Path 323" d="M792.81,3332.9a3.751,3.751,0,0,0,5.3,0l1.848-1.849,1.849,1.849a3.751,3.751,0,0,0,5.3,0l1.848-1.849,1.849,1.849a3.751,3.751,0,0,0,5.3,0l1.848-1.849,1.849,1.849a3.751,3.751,0,0,0,5.3,0l1.848-1.849,1.849,1.849a3.751,3.751,0,0,0,5.3,0" fill="none" stroke="#fff" stroke-linecap="round" stroke-linejoin="round" stroke-width="2"/>
  </g>
</svg>
