<svg xmlns="http://www.w3.org/2000/svg" width="56" height="56" viewBox="0 0 56 56">
  <g id="Fishing" transform="translate(-159.459 -3071.911)">
    <path id="Path_235" data-name="Path 235" d="M185.432,3103.371c7.371,1.168,13.027,7.612,13.027,9.1s-5.654,7.93-13.024,9.1a31.367,31.367,0,0,1-8.2,5.341v-6.33a20.465,20.465,0,0,1-8.51-6.292,31.139,31.139,0,0,1-8.264,5.4,16,16,0,0,1,2.111-7.111,18.526,18.526,0,0,1-2.111-7.329,31.148,31.148,0,0,1,8.264,5.4,20.454,20.454,0,0,1,8.51-6.292v-6.328a31.294,31.294,0,0,1,8.2,5.34Z" fill="none" stroke="#fff" stroke-linecap="round" stroke-linejoin="round" stroke-width="2" fill-rule="evenodd"/>
    <path id="Path_236" data-name="Path 236" d="M204.459,3099.5v6a4,4,0,0,0,4,4h0a4,4,0,0,0,4-4v-28.59" fill="none" stroke="#fff" stroke-linecap="round" stroke-linejoin="round" stroke-width="2"/>
    <circle id="Ellipse_8" data-name="Ellipse 8" cx="2" cy="2" r="2" transform="translate(210.459 3072.911)" stroke-width="2" stroke="#fff" stroke-linecap="round" stroke-linejoin="round" fill="none"/>
    <circle id="Ellipse_9" data-name="Ellipse 9" cx="0.5" cy="0.5" r="0.5" transform="translate(187.959 3111.971)" stroke-width="2" stroke="#fff" stroke-linecap="round" stroke-linejoin="round" fill="none"/>
    <path id="Path_237" data-name="Path 237" d="M204.459,3099.5l2,4h-2" fill="none" stroke="#fff" stroke-linecap="round" stroke-linejoin="round" stroke-width="2"/>
    <circle id="Ellipse_10" data-name="Ellipse 10" cx="3" cy="3" r="3" transform="translate(192.459 3091.471)" stroke-width="2" stroke="#fff" stroke-linecap="round" stroke-linejoin="round" fill="none"/>
    <path id="Path_238" data-name="Path 238" d="M188.459,3082.471a1,1,0,0,1,1-1" fill="none" stroke="#fff" stroke-linecap="round" stroke-linejoin="round" stroke-width="2"/>
  </g>
</svg>
