<svg xmlns="http://www.w3.org/2000/svg" width="62.417" height="42.382" viewBox="0 0 62.417 42.382">
  <g id="island-hopping-icon" transform="translate(-583.257 -2969.57)">
    <path id="Path_215" data-name="Path 215" d="M602.746,2990.572s8.938,3.855,23.453.231C626.2,2990.8,614.07,3007.82,602.746,2990.572Z" fill="none" stroke="#fff" stroke-linejoin="round" stroke-width="2"/>
    <line id="Line_19" data-name="Line 19" x2="2.896" y2="4.899" transform="translate(615.424 2992.359)" fill="none" stroke="#fff" stroke-linejoin="round" stroke-width="2"/>
    <line id="Line_20" data-name="Line 20" x2="3.315" y2="5.936" transform="translate(609.827 2992.224)" fill="none" stroke="#fff" stroke-linejoin="round" stroke-width="2"/>
    <path id="Path_216" data-name="Path 216" d="M606.176,3010.576s15.589-9.59,33.723-6.283" fill="none" stroke="#fff" stroke-linecap="round" stroke-miterlimit="10" stroke-width="2"/>
    <path id="Path_217" data-name="Path 217" d="M591.364,3005.717s12.943-4.4,23.8.717" fill="none" stroke="#fff" stroke-linecap="round" stroke-miterlimit="10" stroke-width="2"/>
    <path id="Path_218" data-name="Path 218" d="M597.119,3001.467s1.685-9.8.216-16.369c0,0-3.89.864-6.31,6.31a.922.922,0,0,1-1.254.389s-1.037-.432-.778-2.55c0,0,.173-7.261,6.483-7.434a20.624,20.624,0,0,0-9.638,2.377s-1.211.432-1.513-.216c0,0-.389-.605,1.037-2.42,0,0,4.15-6.656,10.417-2.464,0,0-2.723-4.754,2.464-7l3.284-1.21s1.773-.735,2.032.086c0,0,.086.3-.778,1.254,0,0-4.078,4-4.236,7.434,0,0,2.248-7.823,11.367-3.933,0,0,2.291.994,1.945,1.988,0,0-.043.542-2.074.672,0,0-5.187.149-8.428,1.705,0,0,4.84-1.179,6.656,2.624l1.556,3.211s.6,1.21-.476,1.556c0,0-.648.432-2.463-1.556,0,0-2.723-3.5-6.051-2.031,0,0,2.074,3.921,2.723,17.19" fill="none" stroke="#fff" stroke-linejoin="round" stroke-width="2"/>
    <path id="Path_219" data-name="Path 219" d="M631.812,3000.918s-1.685-9.251-.216-15.82c0,0,3.89.864,6.31,6.31a.921.921,0,0,0,1.254.389s1.037-.432.778-2.55c0,0-.173-7.261-6.483-7.434a20.624,20.624,0,0,1,9.638,2.377s1.21.432,1.513-.216c0,0,.389-.605-1.038-2.42,0,0-4.149-6.656-10.416-2.464,0,0,2.723-4.754-2.464-7l-3.284-1.21s-1.772-.735-2.032.086c0,0-.086.3.778,1.254,0,0,4.077,4,4.236,7.434,0,0-2.248-7.823-11.367-3.933,0,0-2.291.994-1.945,1.988,0,0,.043.542,2.074.672,0,0,5.187.149,8.429,1.705,0,0-4.841-1.179-6.657,2.624l-1.556,3.211s-.605,1.21.476,1.556c0,0,.648.432,2.463-1.556,0,0,2.723-3.5,6.052-2.031,0,0-2.075,4.273-2.723,17.542" fill="none" stroke="#fff" stroke-linejoin="round" stroke-width="2"/>
  </g>
</svg>
