<svg xmlns="http://www.w3.org/2000/svg" width="44" height="42.552" viewBox="0 0 44 42.552">
  <g id="mountaineering-icon" transform="translate(-136.336 -3187.97)">
    <path id="Path_224" data-name="Path 224" d="M159.469,3213.135l3.745-1.626,1.745,2.082,1.429-2.037,3.339.707" fill="none" stroke="#fff" stroke-linecap="round" stroke-linejoin="round" stroke-width="2"/>
    <path id="Path_225" data-name="Path 225" d="M155.222,3220.822l-6.3-10.128-11.582,18.828h13.034" fill="none" stroke="#fff" stroke-linecap="round" stroke-linejoin="round" stroke-width="2"/>
    <path id="Path_226" data-name="Path 226" d="M179.336,3229.522l-14.485-26.069-14.48,26.069Z" fill="none" stroke="#fff" stroke-linecap="round" stroke-linejoin="round" stroke-width="2"/>
    <path id="Path_227" data-name="Path 227" d="M145.358,3216.488l2.2,1.143,1.867-1.394,3.118.366" fill="none" stroke="#fff" stroke-linecap="round" stroke-linejoin="round" stroke-width="2"/>
    <line id="Line_34" data-name="Line 34" y2="14.483" transform="translate(164.853 3188.97)" fill="none" stroke="#fff" stroke-linecap="round" stroke-linejoin="round" stroke-width="2"/>
    <path id="Path_228" data-name="Path 228" d="M176.439,3191.867h-5.793v2.9h0v2.9h5.793l-2.172-2.9Z" fill="none" stroke="#fff" stroke-linecap="round" stroke-linejoin="round" stroke-width="2"/>
    <rect id="Rectangle_51" data-name="Rectangle 51" width="5.793" height="5.793" transform="translate(164.853 3190.418)" stroke-width="2" stroke="#fff" stroke-linecap="round" stroke-linejoin="round" fill="none"/>
    <path id="Path_229" data-name="Path 229" d="M152.419,3195.053a3.505,3.505,0,0,1,1.145.191" fill="none" stroke="#fff" stroke-linecap="round" stroke-linejoin="round" stroke-width="2"/>
    <path id="Path_230" data-name="Path 230" d="M141.376,3195.247a3.52,3.52,0,0,1,1.154-.194" fill="none" stroke="#fff" stroke-linecap="round" stroke-linejoin="round" stroke-width="2"/>
    <path id="Path_231" data-name="Path 231" d="M145.123,3193.225a2.338,2.338,0,0,1,.633.754" fill="none" stroke="#fff" stroke-linecap="round" stroke-linejoin="round" stroke-width="2"/>
    <path id="Path_232" data-name="Path 232" d="M153.554,3195.245a4.262,4.262,0,0,0,.028-.482,4.363,4.363,0,0,0-8.444-1.524,2.327,2.327,0,0,0-3.772,1.814c0,.067.005.133.01.2A3.472,3.472,0,0,0,142.53,3202h9.889a3.472,3.472,0,0,0,1.135-6.76Z" fill="none" stroke="#fff" stroke-linecap="round" stroke-linejoin="round" stroke-width="2"/>
  </g>
</svg>
