<svg xmlns="http://www.w3.org/2000/svg" width="32.868" height="44" viewBox="0 0 32.868 44">
  <g id="snorkling-icon" transform="translate(-915.762 -2968.575)">
    <line id="Line_16" data-name="Line 16" y1="8.188" transform="translate(944.441 2969.576)" fill="none" stroke="#fff" stroke-miterlimit="10" stroke-width="2"/>
    <path id="Path_208" data-name="Path 208" d="M930.562,3002.684v2.36a6.551,6.551,0,0,0,6.531,6.532h.817a6.55,6.55,0,0,0,6.531-6.532v-6.62" fill="none" stroke="#fff" stroke-miterlimit="10" stroke-width="2"/>
    <path id="Path_209" data-name="Path 209" d="M941.175,2999.234v5.266a3.676,3.676,0,1,1-7.347,0v-1.816" fill="none" stroke="#fff" stroke-miterlimit="10" stroke-width="2"/>
    <line id="Line_17" data-name="Line 17" y2="7.142" transform="translate(941.175 2969.575)" fill="none" stroke="#fff" stroke-miterlimit="10" stroke-width="2"/>
    <path id="Path_210" data-name="Path 210" d="M927.508,3001.434" fill="none" stroke="#fff" stroke-miterlimit="10" stroke-width="2"/>
    <path id="Path_211" data-name="Path 211" d="M928.738,3001.936s2.8,1.885,6.915,0" fill="none" stroke="#fff" stroke-linecap="round" stroke-miterlimit="10" stroke-width="2"/>
    <path id="Path_212" data-name="Path 212" d="M932.24,2986.169c1.549,0,2.2.85,2.473,2.433l.806,4.1a23.813,23.813,0,0,1,2.564.456,17.357,17.357,0,0,0,2.748.446c.052,0,.1.007.153.007a4.026,4.026,0,0,0,3.424-3.866v-3.557c0-1.957-1.525-3.276-4.532-3.92a44.575,44.575,0,0,0-7.6-.758h-.15a44.579,44.579,0,0,0-7.606.758c-3.007.644-4.532,1.963-4.532,3.92v3.557a4.026,4.026,0,0,0,3.424,3.866c.051,0,.1,0,.153-.007a17.373,17.373,0,0,0,2.749-.446,23.764,23.764,0,0,1,2.562-.456l.808-4.1c.277-1.583.924-2.433,2.472-2.433Z" fill="none" stroke="#fff" stroke-linecap="round" stroke-linejoin="round" stroke-width="2"/>
    <path id="Path_213" data-name="Path 213" d="M924.838,2985.38a2.352,2.352,0,0,0-2.041,2.313" fill="none" stroke="#fff" stroke-linecap="round" stroke-linejoin="round" stroke-width="2"/>
    <line id="Line_18" data-name="Line 18" x2="3.246" transform="translate(941.18 2969.575)" fill="none" stroke="#fff" stroke-linecap="round" stroke-miterlimit="10" stroke-width="2"/>
    <path id="Path_214" data-name="Path 214" d="M932.252,2978.249a47.147,47.147,0,0,1,8.263.83c4.151.889,7.115,3.2,7.115,7.113v3.557c0,3.912-3.557,7.41-7.115,7.114-2.574-.215-3.383-.678-5.412-.918-.614,1.6-1.72,2.714-2.908,2.714s-2.274-1.081-2.889-2.673l-.02-.057c-2.028.24-2.837.719-5.411.934-3.557.3-7.113-3.2-7.113-7.114v-3.557c0-3.912,2.964-6.224,7.113-7.113a47.511,47.511,0,0,1,8.283-.83Z" fill="none" stroke="#fff" stroke-miterlimit="10" stroke-width="2"/>
  </g>
</svg>
