<svg xmlns="http://www.w3.org/2000/svg" width="57.156" height="48.08" viewBox="0 0 57.156 48.08">
  <g id="standup-paddleboarding-icon" transform="translate(-658.253 -3075.869)">
    <path id="Path_324" data-name="Path 324" d="M671.258,3108.355a31.2,31.2,0,0,0,2.618-6.357c.243-1.255-.469-4.162.515-8.172.462-1.885,2.346-8.067,7.776-9.472l.386-1.035c.262-.768-1.325-1.657-1.336-2.779a3.633,3.633,0,1,1,3.969,3.579l-.045.1a38.325,38.325,0,0,1,11.346.2c.306.045.732.508.958.512.2-.716,1.261-1,2.674-1,1.907,0,2.068,4.026,0,4.026-1.009,0-2.123-.247-2.323-.809s-.461-.143-1.062.05a41.361,41.361,0,0,0-10.083.6,1.608,1.608,0,0,0-.874,2.737,1.081,1.081,0,0,0,.514.27c.517.1,4.549.562,4.6.169.092-.763,1.626-.96,2.488-.776,1.919.411,1.8,3.762-.163,3.869-.285.015-1.485.237-1.951-.279a.932.932,0,0,0-.888-.246,22.489,22.489,0,0,1-6.7-.066,3.41,3.41,0,0,1-1.362-.737,1.018,1.018,0,0,0-.05,1.463c1.21,1.741,2.27,3.178,3.48,5.3,1.174,2.054,2.355,5.894,3.1,7.628,2.5.469,3.017,1.6,2.774,2.361s-3.874.712-4.192.075c0,0-2.817-4.894-4.041-6.734a35.645,35.645,0,0,0-4.752-5.222s-.353,4.314-1.286,5.9c-.336.572-1.461,2.265-2.548,3.909,1.06.908,1.589,1.983,1.161,2.412S670.678,3109.792,671.258,3108.355Z" fill="none" stroke="#fff" stroke-linecap="round" stroke-linejoin="round" stroke-width="2"/>
    <path id="Path_325" data-name="Path 325" d="M714.006,3109.472s-5.289,4.067-54.725,2.643" fill="none" stroke="#fff" stroke-linecap="round" stroke-linejoin="round" stroke-width="2"/>
    <path id="Path_326" data-name="Path 326" d="M663.483,3122.524a1.449,1.449,0,0,1,0-2.049l2.562-2.557a1.449,1.449,0,0,1,2.049,0h0a1.45,1.45,0,0,1,0,2.049l-2.563,2.557a1.447,1.447,0,0,1-2.048,0Z" fill="none" stroke="#fff" stroke-linecap="round" stroke-linejoin="round" stroke-width="2"/>
    <line id="Line_82" data-name="Line 82" x1="30.055" y2="30" transform="translate(667.962 3088.036)" fill="none" stroke="#fff" stroke-linecap="round" stroke-linejoin="round" stroke-width="2"/>
  </g>
</svg>
