<svg xmlns="http://www.w3.org/2000/svg" width="11.225" height="14.5" viewBox="0 0 11.225 14.5">
  <path id="white-pinterest" d="M345,474.759a2.388,2.388,0,0,1-2.034-1.038s-.484,1.919-.586,2.289a8.852,8.852,0,0,1-1.5,2.726.11.11,0,0,1-.2-.047,9.342,9.342,0,0,1,.025-3.166c.16-.676,1.072-4.538,1.072-4.538a3.2,3.2,0,0,1-.266-1.317c0-1.234.716-2.156,1.607-2.156a1.116,1.116,0,0,1,1.123,1.25,17.9,17.9,0,0,1-.735,2.956,1.289,1.289,0,0,0,1.315,1.6c1.577,0,2.64-2.027,2.64-4.428,0-1.825-1.229-3.192-3.466-3.192a3.945,3.945,0,0,0-4.1,3.989,2.4,2.4,0,0,0,.55,1.634.4.4,0,0,1,.12.464c-.041.153-.132.523-.17.669a.287.287,0,0,1-.417.208,3.208,3.208,0,0,1-1.705-3.182c0-2.366,2-5.2,5.953-5.2a4.978,4.978,0,0,1,5.273,4.771C349.495,472.318,347.678,474.759,345,474.759Z" transform="translate(-338.269 -464.28)" fill="#fff" fill-rule="evenodd"/>
</svg>
