<svg xmlns="http://www.w3.org/2000/svg" width="15" height="15" viewBox="0 0 15 15">
  <path id="white-ig-icon" d="M342.114,317.4c-1.868,0-2.132.01-2.907.045a5.517,5.517,0,0,0-1.82.349,3.836,3.836,0,0,0-2.194,2.194,5.5,5.5,0,0,0-.348,1.82c-.037.8-.045,1.055-.045,3.092s.009,2.292.045,3.092a5.506,5.506,0,0,0,.348,1.82,3.836,3.836,0,0,0,2.194,2.194,5.506,5.506,0,0,0,1.82.348c.8.037,1.056.045,3.092.045s2.292-.009,3.092-.045a5.5,5.5,0,0,0,1.82-.348,3.836,3.836,0,0,0,2.194-2.194,5.517,5.517,0,0,0,.349-1.82c.035-.775.044-1.039.045-2.907v-.371c0-1.868-.01-2.132-.045-2.907a5.514,5.514,0,0,0-.349-1.82,3.836,3.836,0,0,0-2.194-2.194,5.514,5.514,0,0,0-1.82-.349c-.775-.035-1.039-.044-2.906-.045Zm5.089,3.5a.9.9,0,1,1-.9-.9.9.9,0,0,1,.9.9Zm-4.9,6.5a2.5,2.5,0,1,1,2.5-2.5,2.5,2.5,0,0,1-2.5,2.5Zm0-6.352a3.851,3.851,0,1,1-3.851,3.852,3.852,3.852,0,0,1,3.851-3.852Zm0-2.3c2,0,2.24.007,3.031.043a4.151,4.151,0,0,1,1.393.258,2.484,2.484,0,0,1,1.423,1.423,4.15,4.15,0,0,1,.258,1.393c.036.791.043,1.028.043,3.031s-.007,2.24-.043,3.031a4.153,4.153,0,0,1-.258,1.393,2.484,2.484,0,0,1-1.423,1.423,4.163,4.163,0,0,1-1.393.258c-.791.036-1.028.043-3.031.043s-2.24-.007-3.031-.043a4.166,4.166,0,0,1-1.393-.258,2.484,2.484,0,0,1-1.423-1.423,4.166,4.166,0,0,1-.258-1.393c-.036-.791-.043-1.028-.043-3.031s.007-2.24.043-3.031a4.163,4.163,0,0,1,.258-1.393,2.484,2.484,0,0,1,1.423-1.423,4.154,4.154,0,0,1,1.393-.258C340.06,318.759,340.3,318.752,342.3,318.752Z" transform="translate(-334.8 -317.4)" fill="#fff" fill-rule="evenodd"/>
</svg>
