<svg xmlns="http://www.w3.org/2000/svg" width="15" height="10.837" viewBox="0 0 15 10.837">
  <path id="white-youtube-icon" d="M349.66,911.227c-.128-1.093-.39-1.413-.575-1.559a3.069,3.069,0,0,0-1.555-.361c-1.156-.079-3.112-.125-5.231-.125s-4.074.046-5.23.125a3.071,3.071,0,0,0-1.555.361c-.186.146-.447.465-.576,1.559a40.966,40.966,0,0,0,0,6.748c.129,1.093.39,1.413.576,1.558a3.058,3.058,0,0,0,1.555.362c1.156.078,3.111.125,5.23.125s4.075-.047,5.231-.125a3.057,3.057,0,0,0,1.555-.362c.185-.145.447-.464.575-1.558a40.859,40.859,0,0,0,0-6.748Zm-9.17,5.732h0v-4.718l4.524,2.359Z" transform="translate(-334.8 -909.182)" fill="#fff" fill-rule="evenodd"/>
</svg>
