<svg xmlns="http://www.w3.org/2000/svg" width="14.83" height="12.053" viewBox="0 0 14.83 12.053">
  <path id="white-twitter-icon" d="M348.112,763.918A8.653,8.653,0,0,1,334.8,771.6a6.117,6.117,0,0,0,4.5-1.26,3.045,3.045,0,0,1-2.842-2.113,3.042,3.042,0,0,0,1.374-.052,3.046,3.046,0,0,1-2.44-3.022,3.028,3.028,0,0,0,1.378.38,3.046,3.046,0,0,1-.942-4.062,8.637,8.637,0,0,0,6.271,3.179,3.045,3.045,0,0,1,5.185-2.775,6.1,6.1,0,0,0,1.932-.738,3.057,3.057,0,0,1-1.338,1.683,6.083,6.083,0,0,0,1.747-.479A6.162,6.162,0,0,1,348.112,763.918Z" transform="translate(-334.8 -760.916)" fill="#fff" fill-rule="evenodd"/>
</svg>
