<svg xmlns="http://www.w3.org/2000/svg" viewBox="0 0 33.62 34.67"><defs><style>.cls-1{fill:none;stroke:#505070;stroke-linecap:round;stroke-linejoin:round;}</style></defs><title>adventure-icon</title><g id="Layer_2" data-name="Layer 2"><g id="Layer_1-2" data-name="Layer 1"><path class="cls-1" d="M1,18.37a1.42,1.42,0,0,1-.17-2l2.3-2.72a1.43,1.43,0,0,1,2-.17h0a1.44,1.44,0,0,1,.17,2L3,18.2a1.42,1.42,0,0,1-2,.17Z"/><line class="cls-1" x1="15.73" y1="0.94" x2="5.15" y2="13.47"/><path class="cls-1" d="M32.61,15.2a1.42,1.42,0,0,1,.17,2l-2.3,2.73a1.44,1.44,0,0,1-2,.17h0a1.44,1.44,0,0,1-.17-2l2.3-2.73a1.44,1.44,0,0,1,2-.17Z"/><line class="cls-1" x1="17.89" y1="32.63" x2="28.47" y2="20.11"/><path class="cls-1" d="M27.51,14.62l-12,14.17C11.48,33.6,5.87,35.54,3,33.13H3C.15,30.72,1.13,24.86,5.19,20l12-14.16c4.06-4.81,9.67-6.76,12.53-4.34h0C32.55,4,31.57,9.81,27.51,14.62Z"/><path class="cls-1" d="M24.92,12.44,13,26.6C10.92,29,8.12,30,6.69,28.77h0c-1.43-1.2-.94-4.13,1.09-6.54l12-14.16c2-2.41,4.84-3.38,6.27-2.18h0C27.44,7.1,27,10,24.92,12.44Z"/><line class="cls-1" x1="11.46" y1="17.87" x2="16.64" y2="22.24"/><line class="cls-1" x1="16.06" y1="12.42" x2="21.24" y2="16.79"/></g></g></svg>