<svg xmlns="http://www.w3.org/2000/svg" width="33.249" height="38.599" viewBox="0 0 33.249 38.599">
  <path id="Path_334" data-name="Path 334" d="M1144.617,1346.244a16.851,16.851,0,0,0,2.056-4.355c.69-2.322.766-4.537.484-4.711-.216-.134-1.351,1.235-2.894,2.361-1.952,1.423-4.574,2.219-4.584,2.585-.008.328.627.726,1.427,1.14-1.812,1.115-3.838,2.042-5.077,1.175-1.634-1.144-2.911-2.993-1.3-5.682,1.052-1.754,6.316-9.772,9.849-15.133,2.6,1.616,6.888,4.2,6.888,4.2a.224.224,0,0,0,.3-.062l1.221-1.745a.224.224,0,0,0-.043-.3s-3.981-3.213-6.381-5.1l1.1-1.668a4.534,4.534,0,1,0-3.284-2.3c-.229.311-.644.869-1.19,1.608-2.594-1.612-6.962-4.247-6.962-4.247a.225.225,0,0,0-.3.062l-1.222,1.745a.223.223,0,0,0,.043.3s3.883,3.134,6.291,5.028c-3.829,5.153-9.563,12.842-10.852,14.431-1.975,2.435-4.15,1.867-5.783.723-1.238-.866-1.061-3.089-.632-5.172.661.61,1.253,1.07,1.559.951.341-.134.192-2.871.862-5.191.529-1.834,1.428-3.37,1.228-3.527-.261-.206-2.315.623-4.262,2.066a16.833,16.833,0,0,0-3.389,3.421c-.006.2.6.447,1.141.6-.707,2.134-1.5,5.517-.481,7.889,1.6,3.71,4.205,7.717,4.659,10.353,2.633-.475,7.289.6,11.322.837,2.579.149,5.486-1.756,7.25-3.149C1143.993,1345.837,1144.432,1346.318,1144.617,1346.244Zm2.2-29.578a2.68,2.68,0,1,1,3.733-.658A2.68,2.68,0,0,1,1146.816,1316.666Z" transform="translate(-1119.773 -1309.935)" fill="#4279bc"/>
</svg>
