<svg xmlns="http://www.w3.org/2000/svg" viewBox="0 0 54.4 34.67"><defs><style>.cls-1,.cls-2,.cls-3{fill:none;stroke:#505070;stroke-linecap:round;stroke-linejoin:round;}.cls-1{fill-rule:evenodd;}.cls-3{stroke-dasharray:0 4.05;}</style></defs><title>breakfast-icon</title><g id="Layer_2" data-name="Layer 2"><g id="Layer_1-2" data-name="Layer 1"><path class="cls-1" d="M7.47.5V12.69a1.75,1.75,0,0,1-1.75,1.74H2.24A1.74,1.74,0,0,1,.5,12.69V.5"/><line class="cls-2" x1="2.82" y1="0.5" x2="2.82" y2="12.11"/><line class="cls-2" x1="5.14" y1="0.5" x2="5.14" y2="12.11"/><path class="cls-1" d="M5.14,14.43V18.9c0,.5,0,1,.06,1.51l.92,11.44A2.15,2.15,0,0,1,4,34.17H4a2.14,2.14,0,0,1-2.13-2.32l.91-11.44c0-.5.06-1,.06-1.51V14.43"/><path class="cls-1" d="M51.81,34.17h-.06a2,2,0,0,1-2-2.43c.54-2.68,1.36-6.81,1.7-8.46a7.94,7.94,0,0,0,.14-1.46v-.33a3,3,0,0,0-1.64-2.66l-.31-.15A2.77,2.77,0,0,1,48.1,16.2V12.58A15.47,15.47,0,0,1,53.9.5h0V32.08A2.09,2.09,0,0,1,51.81,34.17Z"/><path class="cls-1" d="M44.61,17.33A16.83,16.83,0,1,1,27.78.5,16.83,16.83,0,0,1,44.61,17.33Z"/><path class="cls-3" d="M39.39,17.33A11.61,11.61,0,1,1,27.78,5.72,11.61,11.61,0,0,1,39.39,17.33Z"/></g></g></svg>