<svg xmlns="http://www.w3.org/2000/svg" width="38.655" height="43" viewBox="0 0 38.655 43">
  <g id="cocktail-icon" transform="translate(-443.189 -9255.75)">
    <path id="Path_239" data-name="Path 239" d="M460.76,9276.684a4.723,4.723,0,0,1-1.982-1.452" fill="none" stroke="#888" stroke-linecap="round" stroke-linejoin="round" stroke-width="1" fill-rule="evenodd"/>
    <path id="Path_240" data-name="Path 240" d="M466.246,9275.231a4.736,4.736,0,0,1-2.965,1.718" fill="none" stroke="#888" stroke-linecap="round" stroke-linejoin="round" stroke-width="1" fill-rule="evenodd"/>
    <path id="Path_241" data-name="Path 241" d="M465.389,9271.558" fill="none" stroke="#888" stroke-linecap="round" stroke-linejoin="round" stroke-width="1" fill-rule="evenodd"/>
    <path id="Path_242" data-name="Path 242" d="M469.638,9298.25h.12a5.793,5.793,0,0,1-5.793-5.793v-9.442a14.372,14.372,0,0,1,3.149-8.977l14.23-17.788H452.379" fill="none" stroke="#888" stroke-linecap="round" stroke-linejoin="round" stroke-width="1"/>
    <path id="Path_243" data-name="Path 243" d="M447.31,9256.25h-3.621l14.231,17.788a14.372,14.372,0,0,1,3.149,8.977v9.442a5.794,5.794,0,0,1-5.794,5.793" fill="none" stroke="#888" stroke-linecap="round" stroke-linejoin="round" stroke-width="1"/>
    <line id="Line_40" data-name="Line 40" x2="2.897" transform="translate(450.931 9259.146)" fill="none" stroke="#888" stroke-linecap="round" stroke-linejoin="round" stroke-width="1"/>
    <line id="Line_41" data-name="Line 41" x2="2.172" transform="translate(453.103 9262.043)" fill="none" stroke="#888" stroke-linecap="round" stroke-linejoin="round" stroke-width="1"/>
    <line id="Line_42" data-name="Line 42" x2="0.724" transform="translate(457.448 9267.836)" fill="none" stroke="#888" stroke-linecap="round" stroke-linejoin="round" stroke-width="1"/>
    <line id="Line_43" data-name="Line 43" transform="translate(459.62 9270.732)" fill="none" stroke="#888" stroke-linecap="round" stroke-linejoin="round" stroke-width="1"/>
    <path id="Path_244" data-name="Path 244" d="M449.917,9263.861a2.661,2.661,0,0,1,2.707,0l2.334,1.433a2.661,2.661,0,0,0,2.707,0l2.332-1.433a2.663,2.663,0,0,1,2.708,0l2.334,1.433a2.661,2.661,0,0,0,2.707,0l2.333-1.433a2.663,2.663,0,0,1,2.708,0l.855.525.773.476" fill="none" stroke="#888" stroke-linecap="round" stroke-linejoin="round" stroke-width="1"/>
  </g>
</svg>
