<svg xmlns="http://www.w3.org/2000/svg" viewBox="0 0 34.67 34.67"><defs><style>.cls-1{fill:none;stroke:#505070;stroke-linecap:round;stroke-linejoin:round;}</style></defs><title>coffeesetup-icon</title><g id="Layer_2" data-name="Layer 2"><g id="Layer_1-2" data-name="Layer 1"><circle class="cls-1" cx="5.49" cy="5.49" r="1.25"/><circle class="cls-1" cx="10.48" cy="5.49" r="1.25"/><line class="cls-1" x1="16.71" y1="5.49" x2="16.71" y2="5.49"/><line class="cls-1" x1="14.22" y1="5.49" x2="14.22" y2="5.49"/><path class="cls-1" d="M30.43,30.43H11.1a1.87,1.87,0,0,1-1.87-1.87V12.35a1.87,1.87,0,0,1,1.87-1.87H29.8A1.87,1.87,0,0,0,31.67,8.6V2.37A1.87,1.87,0,0,0,29.8.5H2.37A1.87,1.87,0,0,0,.5,2.37V32.3a1.87,1.87,0,0,0,1.87,1.87H30.43a1.25,1.25,0,0,0,1.24-1.25V31.67A1.24,1.24,0,0,0,30.43,30.43Z"/><path class="cls-1" d="M15.46,10.48h8.73a0,0,0,0,1,0,0v3a2,2,0,0,1-2,2H17.46a2,2,0,0,1-2-2v-3A0,0,0,0,1,15.46,10.48Z"/><path class="cls-1" d="M17.33,19.2h10.6v4.47a6.76,6.76,0,0,1-6.75,6.76h-2.7a6.76,6.76,0,0,1-6.76-6.76V19.2h2.5"/><line class="cls-1" x1="17.96" y1="15.46" x2="17.96" y2="17.33"/><line class="cls-1" x1="21.7" y1="15.46" x2="21.7" y2="17.33"/><path class="cls-1" d="M27.93,20.45h1.68a2.06,2.06,0,0,1,2.06,2.06h0a2,2,0,0,1-.86,1.67l-3.5,2.5"/><line class="cls-1" x1="0.5" y1="10.48" x2="11.1" y2="10.48"/><path class="cls-1" d="M32.92,15.46h-5a1.25,1.25,0,0,1-1.25-1.24h0A1.25,1.25,0,0,1,27.93,13h5a1.25,1.25,0,0,1,1.25,1.25h0A1.25,1.25,0,0,1,32.92,15.46Z"/><line class="cls-1" x1="24.19" y1="14.22" x2="26.68" y2="14.22"/></g></g></svg>