<svg xmlns="http://www.w3.org/2000/svg" width="32.862" height="45" viewBox="0 0 32.862 45">
  <g id="dessert-icon" transform="translate(-703.061 -9254.75)">
    <path id="Path_249" data-name="Path 249" d="M728.6,9261.319a6.815,6.815,0,0,0-2.294.4,6.819,6.819,0,0,0-13.62,0,6.825,6.825,0,1,0-2.293,13.252H728.6a6.827,6.827,0,0,0,0-13.654Z" fill="none" stroke="#888" stroke-linecap="round" stroke-linejoin="round" stroke-width="1" fill-rule="evenodd"/>
    <g id="Group_71" data-name="Group 71">
      <g id="Group_70" data-name="Group 70">
        <line id="Line_44" data-name="Line 44" x2="0.038" transform="translate(717.09 9293.181)" fill="none" stroke="#888" stroke-linecap="round" stroke-linejoin="round" stroke-width="1"/>
        <line id="Line_45" data-name="Line 45" x2="1.24" transform="translate(719.453 9293.181)" stroke-dasharray="0.102 3.065" stroke="#888" stroke-linecap="round" stroke-linejoin="round" stroke-width="1" fill="none"/>
        <line id="Line_46" data-name="Line 46" x2="0.038" transform="translate(721.856 9293.181)" fill="none" stroke="#888" stroke-linecap="round" stroke-linejoin="round" stroke-width="1"/>
      </g>
    </g>
    <g id="Group_73" data-name="Group 73">
      <g id="Group_72" data-name="Group 72">
        <line id="Line_47" data-name="Line 47" x2="0.038" transform="translate(715.13 9288.629)" fill="none" stroke="#888" stroke-linecap="round" stroke-linejoin="round" stroke-width="1"/>
        <line id="Line_48" data-name="Line 48" x2="5.532" transform="translate(717.296 9288.629)" stroke-dasharray="0.093 2.805" stroke="#888" stroke-linecap="round" stroke-linejoin="round" stroke-width="1" fill="none"/>
        <line id="Line_49" data-name="Line 49" x2="0.038" transform="translate(723.892 9288.629)" fill="none" stroke="#888" stroke-linecap="round" stroke-linejoin="round" stroke-width="1"/>
      </g>
    </g>
    <g id="Group_75" data-name="Group 75">
      <g id="Group_74" data-name="Group 74">
        <line id="Line_50" data-name="Line 50" x2="0.038" transform="translate(713.145 9284.077)" fill="none" stroke="#888" stroke-linecap="round" stroke-linejoin="round" stroke-width="1"/>
        <line id="Line_51" data-name="Line 51" x2="8.949" transform="translate(715.646 9284.077)" stroke-dasharray="0.108 3.247" stroke="#888" stroke-linecap="round" stroke-linejoin="round" stroke-width="1" fill="none"/>
        <line id="Line_52" data-name="Line 52" x2="0.038" transform="translate(725.826 9284.077)" fill="none" stroke="#888" stroke-linecap="round" stroke-linejoin="round" stroke-width="1"/>
      </g>
    </g>
    <g id="Group_77" data-name="Group 77">
      <g id="Group_76" data-name="Group 76">
        <line id="Line_53" data-name="Line 53" x2="0.038" transform="translate(711.223 9279.525)" fill="none" stroke="#888" stroke-linecap="round" stroke-linejoin="round" stroke-width="1"/>
        <line id="Line_54" data-name="Line 54" x2="13.032" transform="translate(713.548 9279.525)" stroke-dasharray="0.1 3.014" stroke="#888" stroke-linecap="round" stroke-linejoin="round" stroke-width="1" fill="none"/>
        <line id="Line_55" data-name="Line 55" x2="0.038" transform="translate(727.723 9279.525)" fill="none" stroke="#888" stroke-linecap="round" stroke-linejoin="round" stroke-width="1"/>
      </g>
    </g>
    <path id="Path_250" data-name="Path 250" d="M706.6,9268.147a3.793,3.793,0,0,1,3.793-3.795" fill="none" stroke="#888" stroke-linecap="round" stroke-linejoin="round" stroke-width="1" fill-rule="evenodd"/>
    <path id="Path_251" data-name="Path 251" d="M732.389,9268.147a3.794,3.794,0,0,1-3.793,3.793" fill="none" stroke="#888" stroke-linecap="round" stroke-linejoin="round" stroke-width="1" fill-rule="evenodd"/>
    <path id="Path_252" data-name="Path 252" d="M715.7,9262.078a3.794,3.794,0,0,1,3.793-3.794" fill="none" stroke="#888" stroke-linecap="round" stroke-linejoin="round" stroke-width="1" fill-rule="evenodd"/>
    <path id="Path_253" data-name="Path 253" d="M730.113,9274.9,719.49,9299.25,708.923,9274.9" fill="none" stroke="#888" stroke-linecap="round" stroke-linejoin="round" stroke-width="1" fill-rule="evenodd"/>
  </g>
</svg>
