<svg xmlns="http://www.w3.org/2000/svg" width="43" height="43" viewBox="0 0 43 43">
  <g id="gift-icon" transform="translate(-929.971 -9255.75)">
    <path id="Path_245" data-name="Path 245" d="M948.673,9257.371c2.2,2.2,2.8,8.212,2.8,8.212s-6.013-.6-8.212-2.8a3.829,3.829,0,0,1,5.414-5.415Z" fill="none" stroke="#888" stroke-linecap="round" stroke-linejoin="round" stroke-width="1"/>
    <path id="Path_246" data-name="Path 246" d="M954.268,9257.371c-2.2,2.2-2.8,8.212-2.8,8.212s6.012-.6,8.212-2.8a3.829,3.829,0,1,0-5.415-5.415Z" fill="none" stroke="#888" stroke-linecap="round" stroke-linejoin="round" stroke-width="1"/>
    <path id="Path_247" data-name="Path 247" d="M967.8,9298.25H935.137a1.555,1.555,0,0,1-1.555-1.556v-23.333H969.36v23.333A1.556,1.556,0,0,1,967.8,9298.25Z" fill="none" stroke="#888" stroke-linecap="round" stroke-linejoin="round" stroke-width="1" fill-rule="evenodd"/>
    <rect id="Rectangle_61" data-name="Rectangle 61" width="7.778" height="32.667" transform="translate(947.582 9265.583)" stroke-width="1" stroke="#888" stroke-linecap="round" stroke-linejoin="round" fill="none"/>
    <path id="Path_248" data-name="Path 248" d="M972.471,9273.361h-42v-6.223a1.556,1.556,0,0,1,1.555-1.556h38.889a1.557,1.557,0,0,1,1.556,1.556Z" fill="none" stroke="#888" stroke-linecap="round" stroke-linejoin="round" stroke-width="1" fill-rule="evenodd"/>
  </g>
</svg>
