<svg xmlns="http://www.w3.org/2000/svg" viewBox="0 0 28.43 34.67"><defs><style>.cls-1,.cls-2{fill:none;stroke:#505070;stroke-linecap:round;stroke-linejoin:round;}.cls-2{stroke-dasharray:0 4.04;}</style></defs><title>largefan-icon</title><g id="Layer_2" data-name="Layer 2"><g id="Layer_1-2" data-name="Layer 1"><circle class="cls-1" cx="14.22" cy="14.22" r="13.72"/><circle class="cls-2" cx="14.22" cy="14.22" r="11.22"/><path class="cls-1" d="M14.84,11.72c.87-.66,2.49-2.41,2.49-3.74,0-2.06-1.39-2.49-3.11-2.49S11.1,7.16,11.1,9.23a3.94,3.94,0,0,0,1.44,3.15"/><path class="cls-1" d="M16.08,16c.14,1.08.84,3.37,2,4,1.79,1,2.86,0,3.72-1.45s.11-3.54-1.68-4.57a3.93,3.93,0,0,0-3.45-.33"/><path class="cls-1" d="M11.73,15c-1-.42-3.34-.95-4.49-.29-1.79,1-1.46,2.45-.6,3.95s3,1.86,4.8.82a3.94,3.94,0,0,0,2-2.82"/><circle class="cls-1" cx="14.22" cy="14.22" r="2.49"/><path class="cls-1" d="M13,27.93v3.74H10.48a1.25,1.25,0,0,0-1.25,1.25h0a1.25,1.25,0,0,0,1.25,1.25H18a1.24,1.24,0,0,0,1.24-1.25h0A1.24,1.24,0,0,0,18,31.67h-2.5V27.93"/></g></g></svg>