<svg xmlns="http://www.w3.org/2000/svg" viewBox="0 0 47.49 33.06"><defs><style>.cls-1{fill:none;stroke:#505070;stroke-linecap:round;stroke-linejoin:round;}</style></defs><title>queenbed-icon</title><g id="Layer_2" data-name="Layer 2"><g id="Layer_1-2" data-name="Layer 1"><rect class="cls-1" x="0.5" y="24.55" width="46.49" height="4.81"/><path class="cls-1" d="M.5,21.34v3.21H47V21.34a4.81,4.81,0,0,0-4.81-4.81H5.31A4.81,4.81,0,0,0,.5,21.34Z"/><path class="cls-1" d="M43.79,16.81V5.31A4.81,4.81,0,0,0,39,.5H8.52A4.81,4.81,0,0,0,3.71,5.31v11.5"/><line class="cls-1" x1="0.5" y1="29.36" x2="0.5" y2="32.56"/><line class="cls-1" x1="46.99" y1="29.36" x2="46.99" y2="32.56"/><line class="cls-1" x1="7.71" y1="10.12" x2="7.71" y2="10.12"/><line class="cls-1" x1="10.92" y1="6.91" x2="10.92" y2="6.91"/><line class="cls-1" x1="7.71" y1="3.71" x2="7.71" y2="3.71"/><line class="cls-1" x1="17.33" y1="6.91" x2="17.33" y2="6.91"/><line class="cls-1" x1="14.13" y1="3.71" x2="14.13" y2="3.71"/><line class="cls-1" x1="23.75" y1="6.91" x2="23.75" y2="6.91"/><line class="cls-1" x1="23.75" y1="13.33" x2="23.75" y2="13.33"/><line class="cls-1" x1="20.54" y1="3.71" x2="20.54" y2="3.71"/><line class="cls-1" x1="30.16" y1="6.91" x2="30.16" y2="6.91"/><line class="cls-1" x1="26.95" y1="3.71" x2="26.95" y2="3.71"/><line class="cls-1" x1="20.54" y1="10.12" x2="20.54" y2="10.12"/><line class="cls-1" x1="26.95" y1="10.12" x2="26.95" y2="10.12"/><line class="cls-1" x1="36.57" y1="6.91" x2="36.57" y2="6.91"/><line class="cls-1" x1="33.36" y1="3.71" x2="33.36" y2="3.71"/><line class="cls-1" x1="39.78" y1="10.12" x2="39.78" y2="10.12"/><line class="cls-1" x1="39.78" y1="3.71" x2="39.78" y2="3.71"/><path class="cls-1" d="M8.83,16.53H19.42l.21-.2a3.12,3.12,0,0,0,0-4.4l-3.3-3.3a3.1,3.1,0,0,0-4.4,0l-3.3,3.3a3.1,3.1,0,0,0,0,4.4Z"/><path class="cls-1" d="M28.07,16.53H38.66l.21-.2a3.12,3.12,0,0,0,0-4.4l-3.3-3.3a3.11,3.11,0,0,0-4.41,0l-3.3,3.3a3.12,3.12,0,0,0,0,4.4Z"/></g></g></svg>