<svg xmlns="http://www.w3.org/2000/svg" viewBox="0 0 40.05 34.67"><defs><style>.cls-1{fill:none;stroke:#505070;stroke-linecap:round;stroke-linejoin:round;}</style></defs><title>safe-icon</title><g id="Layer_2" data-name="Layer 2"><g id="Layer_1-2" data-name="Layer 1"><circle class="cls-1" cx="14.64" cy="15.99" r="3.37"/><circle class="cls-1" cx="14.64" cy="15.99" r="0.34"/><circle class="cls-1" cx="14.64" cy="9.25" r="0.34"/><circle class="cls-1" cx="14.64" cy="22.72" r="0.34"/><rect class="cls-1" x="0.5" y="0.5" width="39.05" height="30.97" rx="2.69"/><path class="cls-1" d="M34.17,11.27V8.58a1.35,1.35,0,0,1,1.34-1.35V5.89a1.34,1.34,0,0,0-1.34-1.35H5.89A1.34,1.34,0,0,0,4.54,5.89v20.2a1.34,1.34,0,0,0,1.35,1.34H34.17a1.34,1.34,0,0,0,1.34-1.34V24.74a1.34,1.34,0,0,1-1.34-1.35V20.7a1.35,1.35,0,0,1,1.34-1.35V12.62A1.34,1.34,0,0,1,34.17,11.27Z"/><rect class="cls-1" x="4.54" y="31.47" width="2.69" height="2.69"/><rect class="cls-1" x="32.82" y="31.47" width="2.69" height="2.69"/><rect class="cls-1" x="24.74" y="10.6" width="6.73" height="2.69"/><line class="cls-1" x1="14.64" y1="12.62" x2="14.64" y2="9.25"/><line class="cls-1" x1="14.64" y1="22.72" x2="14.64" y2="19.35"/><circle class="cls-1" cx="19.4" cy="11.23" r="0.34"/><circle class="cls-1" cx="9.88" cy="20.75" r="0.34"/><line class="cls-1" x1="17.02" y1="13.61" x2="19.4" y2="11.23"/><line class="cls-1" x1="9.88" y1="20.75" x2="12.26" y2="18.37"/><circle class="cls-1" cx="21.37" cy="15.99" r="0.34"/><circle class="cls-1" cx="7.91" cy="15.99" r="0.34"/><line class="cls-1" x1="18.01" y1="15.99" x2="21.37" y2="15.99"/><line class="cls-1" x1="7.91" y1="15.99" x2="11.27" y2="15.99"/><circle class="cls-1" cx="19.4" cy="20.75" r="0.34"/><circle class="cls-1" cx="9.88" cy="11.23" r="0.34"/><line class="cls-1" x1="17.02" y1="18.37" x2="19.4" y2="20.75"/><line class="cls-1" x1="9.88" y1="11.23" x2="12.26" y2="13.61"/><path class="cls-1" d="M36.86,8.58v2.69a1.34,1.34,0,0,1-1.35,1.35h0a1.34,1.34,0,0,1-1.34-1.35V8.58a1.35,1.35,0,0,1,1.34-1.35h0A1.35,1.35,0,0,1,36.86,8.58Z"/><path class="cls-1" d="M36.86,20.7v2.69a1.34,1.34,0,0,1-1.35,1.35h0a1.34,1.34,0,0,1-1.34-1.35V20.7a1.35,1.35,0,0,1,1.34-1.35h0A1.35,1.35,0,0,1,36.86,20.7Z"/><line class="cls-1" x1="25.41" y1="15.99" x2="25.41" y2="16.66"/><line class="cls-1" x1="28.11" y1="15.99" x2="28.11" y2="16.66"/><line class="cls-1" x1="30.8" y1="15.99" x2="30.8" y2="16.66"/><line class="cls-1" x1="25.41" y1="18.68" x2="25.41" y2="19.35"/><line class="cls-1" x1="28.11" y1="18.68" x2="28.11" y2="19.35"/><line class="cls-1" x1="30.8" y1="18.68" x2="30.8" y2="19.35"/><line class="cls-1" x1="25.41" y1="21.37" x2="25.41" y2="22.05"/><line class="cls-1" x1="28.11" y1="21.37" x2="28.11" y2="22.05"/><line class="cls-1" x1="30.8" y1="21.37" x2="30.8" y2="22.05"/><line class="cls-1" x1="34.17" y1="22.05" x2="36.86" y2="22.05"/><line class="cls-1" x1="34.17" y1="9.93" x2="36.86" y2="9.93"/></g></g></svg>