<svg xmlns="http://www.w3.org/2000/svg" width="57.898" height="50.004" viewBox="0 0 57.898 50.004">
  <g id="sunrise" transform="translate(0.414)">
    <g id="Layer_1" data-name="Layer 1">
      <line id="Line_101" data-name="Line 101" y1="5" transform="translate(28.54 1)" fill="none" stroke="#2699b5" stroke-linecap="round" stroke-linejoin="round" stroke-miterlimit="10" stroke-width="2"/>
      <line id="Line_102" data-name="Line 102" x1="5" transform="translate(49.54 27)" fill="none" stroke="#2699b5" stroke-linecap="round" stroke-linejoin="round" stroke-miterlimit="10" stroke-width="2"/>
      <line id="Line_103" data-name="Line 103" x1="5" transform="translate(2.54 27)" fill="none" stroke="#2699b5" stroke-linecap="round" stroke-linejoin="round" stroke-miterlimit="10" stroke-width="2"/>
      <line id="Line_104" data-name="Line 104" x1="1.97" y1="1.97" transform="translate(11.72 10.18)" fill="none" stroke="#2699b5" stroke-linecap="round" stroke-linejoin="round" stroke-miterlimit="10" stroke-width="2"/>
      <line id="Line_105" data-name="Line 105" x1="1.97" y2="1.97" transform="translate(43.38 10.18)" fill="none" stroke="#2699b5" stroke-linecap="round" stroke-linejoin="round" stroke-miterlimit="10" stroke-width="2"/>
      <line id="Line_106" data-name="Line 106" x1="0.72" y1="2.7" transform="translate(22.38 4.02)" fill="none" stroke="#2699b5" stroke-linecap="round" stroke-linejoin="round" stroke-miterlimit="10" stroke-width="2"/>
      <line id="Line_107" data-name="Line 107" x1="2.69" y2="0.72" transform="translate(48.82 20.84)" fill="none" stroke="#2699b5" stroke-linecap="round" stroke-linejoin="round" stroke-miterlimit="10" stroke-width="2"/>
      <line id="Line_108" data-name="Line 108" x1="2.69" y2="0.72" transform="translate(5.56 32.44)" fill="none" stroke="#2699b5" stroke-linecap="round" stroke-linejoin="round" stroke-miterlimit="10" stroke-width="2"/>
      <line id="Line_109" data-name="Line 109" x1="4.33" y1="2.5" transform="translate(6.02 14)" fill="none" stroke="#2699b5" stroke-linecap="round" stroke-linejoin="round" stroke-miterlimit="10" stroke-width="2"/>
      <line id="Line_110" data-name="Line 110" x1="2.5" y2="4.33" transform="translate(39.04 4.48)" fill="none" stroke="#2699b5" stroke-linecap="round" stroke-linejoin="round" stroke-miterlimit="10" stroke-width="2"/>
      <line id="Line_111" data-name="Line 111" x1="2.5" y1="4.33" transform="translate(15.54 4.48)" fill="none" stroke="#2699b5" stroke-linecap="round" stroke-linejoin="round" stroke-miterlimit="10" stroke-width="2"/>
      <line id="Line_112" data-name="Line 112" x1="4.33" y2="2.5" transform="translate(46.72 14)" fill="none" stroke="#2699b5" stroke-linecap="round" stroke-linejoin="round" stroke-miterlimit="10" stroke-width="2"/>
      <line id="Line_113" data-name="Line 113" x1="2.69" y1="0.72" transform="translate(48.82 32.44)" fill="none" stroke="#2699b5" stroke-linecap="round" stroke-linejoin="round" stroke-miterlimit="10" stroke-width="2"/>
      <line id="Line_114" data-name="Line 114" x1="2.69" y1="0.72" transform="translate(5.56 20.84)" fill="none" stroke="#2699b5" stroke-linecap="round" stroke-linejoin="round" stroke-miterlimit="10" stroke-width="2"/>
      <line id="Line_115" data-name="Line 115" x1="0.72" y2="2.7" transform="translate(33.97 4.02)" fill="none" stroke="#2699b5" stroke-linecap="round" stroke-linejoin="round" stroke-miterlimit="10" stroke-width="2"/>
      <path id="Path_379" data-name="Path 379" d="M18.61,39.53a4.9,4.9,0,0,0,1.46-1l2.47-2.47L25,38.54a5,5,0,0,0,7.07,0l2.47-2.47L37,38.54a5,5,0,0,0,1.46,1,16,16,0,1,0-19.85,0Z" fill="none" stroke="#2699b5" stroke-linecap="round" stroke-linejoin="round" stroke-miterlimit="10" stroke-width="2"/>
      <path id="Path_380" data-name="Path 380" d="M16.52,27a12,12,0,0,1,12-12" fill="none" stroke="#2699b5" stroke-linecap="round" stroke-linejoin="round" stroke-miterlimit="10" stroke-width="2"/>
      <path id="Path_381" data-name="Path 381" d="M56.07,38.54a5,5,0,0,1-7.07,0l-2.46-2.47-2.47,2.47a5,5,0,0,1-7.07,0l-2.46-2.47-2.47,2.47a5,5,0,0,1-7.07,0l-2.46-2.47-2.47,2.47a5,5,0,0,1-7.07,0l-2.46-2.47L8.07,38.54a5,5,0,0,1-7.07,0" fill="none" stroke="#2699b5" stroke-linecap="round" stroke-linejoin="round" stroke-miterlimit="10" stroke-width="2"/>
      <path id="Path_382" data-name="Path 382" d="M44.07,47.54a5,5,0,0,1-7.07,0l-2.46-2.47-2.47,2.47a5,5,0,0,1-7.07,0l-2.46-2.47-2.47,2.47a5,5,0,0,1-7.07,0" fill="none" stroke="#2699b5" stroke-linecap="round" stroke-linejoin="round" stroke-miterlimit="10" stroke-width="2"/>
    </g>
  </g>
</svg>
