<svg xmlns="http://www.w3.org/2000/svg" width="90" height="18.506" viewBox="0 0 90 18.506">
  <g id="Layer_2" data-name="Layer 2" transform="translate(0 -0.001)">
    <g id="Layer_1" data-name="Layer 1">
      <path id="Path_333" data-name="Path 333" d="M70.37,8.19C65.79,13.44,58.66,13.33,56.28,12c-6.08-4.46,3.4-11,7.29-8C61.49-1.7,47.94-.57,40,2.82,31.1,6.62,26.15,15.54,21.28,13.1,18.12,11.52,23.54,6,27.15,6c-4.74-.68-8.92,2.49-12,5.15C9.7,15.91,3.09,14.35,0,12.69c0,0,7.19,6.22,14.91,1.2,0,0,1.33,3.4,6.14,3.4,9.31,0,16.65-11.51,29-12.67C46,8.67,44.56,14.08,48.9,17c6.24,4.16,16.61-1.16,21.24-5.41,1.16,3.86,8.11,7.34,19.86,1.12C81.73,15.43,75.44,14.07,70.37,8.19Z" fill="#4279bc"/>
    </g>
  </g>
</svg>
