<svg xmlns="http://www.w3.org/2000/svg" width="27.603" height="79.042" viewBox="0 0 27.603 79.042">
  <g id="Group_111" data-name="Group 111" transform="translate(-731.573 -31.958)">
    <path id="Path_11" data-name="Path 11" d="M747.724,109.586c-.776-8.85-1.04-17.762-2.321-26.556a353.041,353.041,0,0,1-3.337-36.857c.3.17.61.335.912.505a271.774,271.774,0,0,0,3.432,36.253c1.228,6.833,1.843,17.729,2.755,26.679a2.3,2.3,0,0,1,.44,1.252,3.781,3.781,0,0,1-1.881.038,3.576,3.576,0,0,1,0-1.314Z" fill-rule="evenodd"/>
    <path id="Path_12" data-name="Path 12" d="M741.834,44.93c-1.8,10.467-2.391,16.491,1.262,19.591a9.739,9.739,0,0,1-1.668-3.383,4.835,4.835,0,0,0,1.867,1.814,15.574,15.574,0,0,0-1.815-2.523,7.862,7.862,0,0,0,1.512,1.059,12.251,12.251,0,0,0-1.512-2.269,6.473,6.473,0,0,0,2.018,1.049,5.27,5.27,0,0,1-1.664-1.757,2.266,2.266,0,0,0,.809.453,3.112,3.112,0,0,1-1.111-2.017,2.466,2.466,0,0,0,.756.656,4.55,4.55,0,0,1-1.063-1.871,5.02,5.02,0,0,0,1.72,1.668,6.071,6.071,0,0,1-1.569-2.878,11.06,11.06,0,0,1,1.366,1.517,11.757,11.757,0,0,0-1.366-2.273,5.381,5.381,0,0,1,1.366.96,16.05,16.05,0,0,0-1.413-2.576,3.9,3.9,0,0,0,.907.7,4.639,4.639,0,0,1-.907-1.767,2.346,2.346,0,0,0,1.626,1.106c-.667-.364-1.319-.789-1.527-2.67a2.083,2.083,0,0,0,.756.6,3.6,3.6,0,0,1-.5-2.07,4.47,4.47,0,0,0,.5.255,4.146,4.146,0,0,1,.425-2.91c-.259-.156-.519-.317-.775-.473Z" fill-rule="evenodd"/>
    <path id="Path_13" data-name="Path 13" d="M742.056,44.217c-4.041,4.7-10.488,10.249-6.007,14.941a3.856,3.856,0,0,1-.558-2.07,3.09,3.09,0,0,0,.837,1.087,10.045,10.045,0,0,1-.558-2.093,2.526,2.526,0,0,0,.709,1.035,5.359,5.359,0,0,1-.534-2.2,8.382,8.382,0,0,1,1.465,1.89,6.723,6.723,0,0,0-.3-.855,1.566,1.566,0,0,0,.558.227,7.459,7.459,0,0,1-1.57-2.575,6.492,6.492,0,0,1,1.541,1.313,7.331,7.331,0,0,0-.808-1.842c.666.585,1.248,1.053,1.768,1.436a8.412,8.412,0,0,0-.733-1.767,1.989,1.989,0,0,0,.657.378,21.67,21.67,0,0,0-.855-2.675,8.738,8.738,0,0,1,1.11,2.1,6.107,6.107,0,0,0-.227-1.767,3.091,3.091,0,0,1,.582.855,4.317,4.317,0,0,0-.383-1.413c.421.449.8.846,1.163,1.215a3.036,3.036,0,0,1-.227-2.651,3.019,3.019,0,0,0,.43,1.384,3.666,3.666,0,0,1,.052-1.79,1.519,1.519,0,0,0,.529.808,2.707,2.707,0,0,1-.127-1.692,2.571,2.571,0,0,0,.784,1.488,3.089,3.089,0,0,1,.856-3.657c-.048-.373-.1-.742-.152-1.11Z" fill-rule="evenodd"/>
    <path id="Path_14" data-name="Path 14" d="M741.631,42.865c-6.1,1.456-13.352,4.418-8.432,9.564a3.353,3.353,0,0,1-.482-2.244,6.78,6.78,0,0,0,1.692,1.464,3.9,3.9,0,0,1-.959-2.4,3.3,3.3,0,0,0,1.767.884,3.176,3.176,0,0,1-.832-1.465,3.272,3.272,0,0,0,1.059.732,1.926,1.926,0,0,1-.506-1.389,2.473,2.473,0,0,0,1.343.86,2.857,2.857,0,0,1-.686-1.413,3.186,3.186,0,0,0,1.012.832,1.77,1.77,0,0,1-.4-.681,2.5,2.5,0,0,0,1.082.681,1.885,1.885,0,0,1-.4-1.163,1.856,1.856,0,0,0,.832.331,1.65,1.65,0,0,1-.506-.709,3.616,3.616,0,0,0,1.238.761,2.111,2.111,0,0,1-.581-1.191,2.886,2.886,0,0,0,1.564.686,2.321,2.321,0,0,1-.756-1.29,3.47,3.47,0,0,0,.983.633c-.066-.156-.146-.345-.274-.6a6.135,6.135,0,0,0,1.7,1.167,3.373,3.373,0,0,1-.818-1.167,6.945,6.945,0,0,0,2.5,1.814,5.042,5.042,0,0,1-2-2.3,1.785,1.785,0,0,0,1.692.378q-.411-1.389-.832-2.774Z" fill-rule="evenodd"/>
    <path id="Path_15" data-name="Path 15" d="M741.149,43.853c-6.315-.515-11.027-1.068-6.816,3.322a5.194,5.194,0,0,1-.482-1.64,4.451,4.451,0,0,0,.809,1.11,1.542,1.542,0,0,1-.175-.845,1.348,1.348,0,0,1,.718.425,1.352,1.352,0,0,0-.175-.629,5.2,5.2,0,0,0,1.21.317.8.8,0,0,1-.378-.709,3.014,3.014,0,0,0,1.541.265.961.961,0,0,1-.6-.43,1.75,1.75,0,0,1,.945.1.813.813,0,0,0-.227-.43,1.276,1.276,0,0,1,.492.416,1.412,1.412,0,0,0-.166-.643,1.737,1.737,0,0,1,.62.591.759.759,0,0,0-.152-.591,2.128,2.128,0,0,0,.922.354.488.488,0,0,1-.25-.316,1.894,1.894,0,0,0,1.276.047,1.037,1.037,0,0,1-.572-.35,11.834,11.834,0,0,1,2,.076c-.18-.147-.354-.3-.534-.444Z" fill-rule="evenodd"/>
    <path id="Path_16" data-name="Path 16" d="M742.108,45.6c8.125-4.337,12.965-6.407,16.907-3.7a8.839,8.839,0,0,0-3.45-.742,5.241,5.241,0,0,1,2.212,1.323,15.767,15.767,0,0,1-2.789-1.1,8.559,8.559,0,0,1,1.446,1.176,12.4,12.4,0,0,1-2.462-.874,7.77,7.77,0,0,1,1.621,1.659,5.541,5.541,0,0,0-2.084-1.144,2.723,2.723,0,0,1,.676.652,3,3,0,0,0-2.1-.548,2.764,2.764,0,0,1,.832.553,4.394,4.394,0,0,0-1.957-.539,5.507,5.507,0,0,1,2.028,1.215,5.758,5.758,0,0,0-2.992-.771,11.6,11.6,0,0,0,1.773.922,11.585,11.585,0,0,1-2.406-.728,6.462,6.462,0,0,0,1.3,1.059,15.341,15.341,0,0,1-2.68-.7,4.4,4.4,0,0,1,.927.69,4.3,4.3,0,0,0-1.815-.426,2.691,2.691,0,0,1,1.522,1.276,2.7,2.7,0,0,0-2.8-.784,2.341,2.341,0,0,1,.784.567,3.01,3.01,0,0,0-1.923.038c.146.141.279.278.4.415a3.1,3.1,0,0,0-2.283,1.134c-.232-.208-.459-.415-.686-.619Z" fill-rule="evenodd"/>
    <path id="Path_17" data-name="Path 17" d="M742.293,46.56c.671-6.161.312-14.662,6.8-14.6a3.865,3.865,0,0,0-1.89,1.011,3.063,3.063,0,0,1,1.361-.132,9.886,9.886,0,0,0-1.91,1.026,2.459,2.459,0,0,1,1.239-.194,5.469,5.469,0,0,0-1.967,1.115,8.318,8.318,0,0,0,2.387-.227,5.978,5.978,0,0,1-.836.369,1.522,1.522,0,0,1,.548.25,7.379,7.379,0,0,0-2.949.619,6.527,6.527,0,0,0,2.008.222,7.4,7.4,0,0,1-1.9.671c.879.085,1.621.189,2.259.307a8.756,8.756,0,0,1-1.791.676,2.049,2.049,0,0,1,.723.217,21.716,21.716,0,0,1-2.538,1.205,8.841,8.841,0,0,0,2.288-.623,6.172,6.172,0,0,1-1.447,1.044,3.052,3.052,0,0,0,1.026-.165,4.227,4.227,0,0,1-1.29.689c.609,0,1.162.01,1.678.019a3.013,3.013,0,0,0-2.089,1.649,3.012,3.012,0,0,1,1.3-.637,3.672,3.672,0,0,0-1.271,1.261,1.54,1.54,0,0,1,.95-.165,2.723,2.723,0,0,0-1.319,1.063,2.6,2.6,0,0,1,1.621-.444,3.093,3.093,0,0,0-2.084,3.128c-.307.217-.61.435-.917.647Z" fill-rule="evenodd"/>
    <path id="Path_18" data-name="Path 18" d="M742.316,46.012c-1.994-5.949-3.318-13.665,3.654-12.219a3.36,3.36,0,0,0-2.16.784,6.775,6.775,0,0,1,2.136.657,5.036,5.036,0,0,0-2.94.458,4.872,4.872,0,0,1,2.085,1.03,4.793,4.793,0,0,0-2.08.066,6.136,6.136,0,0,1,1.579.516,3.346,3.346,0,0,0-1.99.307,4.388,4.388,0,0,1,1.98.68,5.047,5.047,0,0,0-2.1.17,6.413,6.413,0,0,1,1.787.416,4.912,4.912,0,0,0-1.338.019,5.451,5.451,0,0,1,1.7.558,5.992,5.992,0,0,0-2.273.274,3.287,3.287,0,0,1,1.791.529,8.113,8.113,0,0,0-1.938-.052,5.77,5.77,0,0,1,2.368.647,6.578,6.578,0,0,0-2.387.137,4.372,4.372,0,0,1,2.481.969,5.923,5.923,0,0,0-2.467-.066,6.405,6.405,0,0,1,2.033.605c-.171.028-1.347-.048-1.636-.015a14.574,14.574,0,0,1,2.865.922,9.573,9.573,0,0,0-2.4-.175,6.077,6.077,0,0,1,2.666,1.044,4.508,4.508,0,0,0-2.808-.359c-.2.142.175,1.1.322,1.531-.033.4-.662.581-.927.567Z" fill-rule="evenodd"/>
    <path id="Path_19" data-name="Path 19" d="M741.74,43.5c-4.169-4.772-7.416-8.231-1.38-7.451a5.112,5.112,0,0,0-1.607.586,4.463,4.463,0,0,1,1.375-.01,1.569,1.569,0,0,0-.789.364,1.375,1.375,0,0,0,.775.321,1.366,1.366,0,0,1-.615.232,5.03,5.03,0,0,1,.974.789.8.8,0,0,0-.794.113,3.043,3.043,0,0,1,1.13,1.082.952.952,0,0,0-.705-.231,1.736,1.736,0,0,0,.643.7.8.8,0,0,1-.477.076,1.349,1.349,0,0,0,.624.146,1.432,1.432,0,0,1-.615.251,1.781,1.781,0,0,0,.846.146.781.781,0,0,1-.567.232,2.042,2.042,0,0,1,.832.529.477.477,0,0,0-.406-.014,1.863,1.863,0,0,1,.8.992,1.046,1.046,0,0,0-.619-.246,11.926,11.926,0,0,0,1.243,1.56c-.222-.057-.444-.109-.666-.166Z" fill-rule="evenodd"/>
    <path id="Path_20" data-name="Path 20" d="M742.543,45c3.139-4.985,7.964-10.537,11.056-4.607a3.151,3.151,0,0,0-1.853-1.106,6.42,6.42,0,0,1,.794,1.947,4.728,4.728,0,0,0-2.085-1.867,4.572,4.572,0,0,1,.492,2.127,4.476,4.476,0,0,0-1.29-1.474,5.718,5.718,0,0,1,.572,1.455,3.163,3.163,0,0,0-1.409-1.262,4.186,4.186,0,0,1,.685,1.843,4.805,4.805,0,0,0-1.375-1.427,6.043,6.043,0,0,1,.756,1.545,4.715,4.715,0,0,0-.8-.959,5.1,5.1,0,0,1,.6,1.564,5.667,5.667,0,0,0-1.55-1.488,3.12,3.12,0,0,1,.68,1.616,7.756,7.756,0,0,0-1.115-1.442,5.436,5.436,0,0,1,.936,2.108,6.21,6.21,0,0,0-1.517-1.654,4.122,4.122,0,0,1,.77,2.377,5.644,5.644,0,0,0-1.418-1.829,6.159,6.159,0,0,1,.766,1.834c-.118-.1-.766-1-.96-1.2a14.063,14.063,0,0,1,1.035,2.632,9.093,9.093,0,0,0-1.3-1.847,5.69,5.69,0,0,1,.822,2.561,4.18,4.18,0,0,0-1.4-2.254c-.227-.062-.7.775-.922,1.143-.311.213-.817-.137-.964-.34Z" fill-rule="evenodd"/>
    <path id="Path_21" data-name="Path 21" d="M742.066,48.049c2.987,10.192,5.114,15.858,9.755,17.034a9.769,9.769,0,0,1-2.987-2.305,4.788,4.788,0,0,0,2.482.808,15.959,15.959,0,0,0-2.746-1.465,7.616,7.616,0,0,0,1.829.283,12.636,12.636,0,0,0-2.364-1.37,6.59,6.59,0,0,0,2.279.052,5.255,5.255,0,0,1-2.269-.841,2.437,2.437,0,0,0,.926.052,3.139,3.139,0,0,1-1.89-1.328,2.465,2.465,0,0,0,.969.26,4.643,4.643,0,0,1-1.773-1.215,5.033,5.033,0,0,0,2.274.742,6.054,6.054,0,0,1-2.671-1.9,11,11,0,0,1,1.891.761,11.679,11.679,0,0,0-2.226-1.441,5.537,5.537,0,0,1,1.649.26,16.017,16.017,0,0,0-2.406-1.687,3.872,3.872,0,0,0,1.13.232,4.614,4.614,0,0,1-1.6-1.187,2.361,2.361,0,0,0,1.952.279c-.76-.038-1.531-.132-2.547-1.729a2.044,2.044,0,0,0,.945.212,3.61,3.61,0,0,1-1.366-1.634c.2.009.388.009.567,0a4.157,4.157,0,0,1-.9-2.8c-.3-.023-.6-.052-.9-.08Z" fill-rule="evenodd"/>
    <path id="Path_22" data-name="Path 22" d="M742.425,46.995a39.857,39.857,0,0,0,3.157,6.46,11.112,11.112,0,0,1-.765-2.528,35.163,35.163,0,0,0,3.289,5.533,14.466,14.466,0,0,1-.709-1.843,58,58,0,0,0,3.437,5.68,12.451,12.451,0,0,1-.884-2.576,16.531,16.531,0,0,0,3.157,3.989c-.681-1.243-1.375-2.5-2.373-4.036a9.605,9.605,0,0,0,3.054,2.221,16.041,16.041,0,0,1-3.966-4.116,7.773,7.773,0,0,0,2.855.86,13.215,13.215,0,0,1-3.536-1.795,4.422,4.422,0,0,0,2.071.557,5.127,5.127,0,0,1-1.768-.959,6.11,6.11,0,0,0,2.675.529,8.383,8.383,0,0,1-4.57-2.575,3.1,3.1,0,0,0,1.087.378,4.061,4.061,0,0,1-1.565-1.361,3.12,3.12,0,0,0,1.035.378,5.739,5.739,0,0,1-2.145-1.767,2.24,2.24,0,0,0,.959.227,2.815,2.815,0,0,1-1.413-.959,13.812,13.812,0,0,1-1.9-2.373,8.787,8.787,0,0,1,2.3,1.21,21.946,21.946,0,0,0-4.226-2.944c0,.251-.005.5-.005.752a2.66,2.66,0,0,1,.747,1.058Z" fill-rule="evenodd"/>
    <path id="Path_23" data-name="Path 23" d="M742.794,45.233a61.247,61.247,0,0,1,12.884,12.333l-1.337-1.139a12.637,12.637,0,0,1,1.947,3.865,8.367,8.367,0,0,0-1.843-2.83c.387.86.775,1.658,1.158,2.348a11.641,11.641,0,0,1-1.612-2.523c.151.548.3,1.1.454,1.639a28.049,28.049,0,0,0-2.477-4.645c.17.634.335,1.262.506,1.9a36.088,36.088,0,0,0-9.595-10.3c-.028-.217-.057-.435-.085-.647Z" fill-rule="evenodd"/>
    <path id="Path_24" data-name="Path 24" d="M741.924,45.119c5.587.26,13.438,1.81,15.177,7.981a8.488,8.488,0,0,0-1.9-2.362,4.181,4.181,0,0,1,.3,1.814,9.376,9.376,0,0,0-1.9-3c.156.756.127,1.413-.138,1.63a7,7,0,0,0-1.072-2.027,3.506,3.506,0,0,1,.193,1.333,6.205,6.205,0,0,0-1.285-2.027c.231.586.378,1.412.194,1.653a8.259,8.259,0,0,0-1.192-2.083,4.869,4.869,0,0,1,.4,1.564,7.318,7.318,0,0,0-.657-1.29c.119.453.327,1.247.194,1.427a10.842,10.842,0,0,0-1.385-2.287,2.089,2.089,0,0,1,.27,1.531,10.586,10.586,0,0,0-.865-1.848,3.994,3.994,0,0,1,.421,2.046,10.326,10.326,0,0,0-1.291-2.348,2.281,2.281,0,0,1,.123,2.032,7.816,7.816,0,0,0-1.111-2.349,4.051,4.051,0,0,1,.308,1.734c-.109-.175-.591-1.276-.761-1.569a8.97,8.97,0,0,1,.349,2.42,10.723,10.723,0,0,0-.954-2.24,3.01,3.01,0,0,1,.127,2.178,4.361,4.361,0,0,0-.94-2.565c-.256-.246-1.125-.237-1.532-.251a2.651,2.651,0,0,1-1.068-1.1Z" fill-rule="evenodd"/>
    <path id="Path_25" data-name="Path 25" d="M743.616,45.044a50.53,50.53,0,0,1,14.1,4.3L756.3,49a10.2,10.2,0,0,1,2.874,2.121,6.84,6.84,0,0,0-2.411-1.4c.6.491,1.187.935,1.73,1.3a9.583,9.583,0,0,1-2.131-1.257c.316.345.633.69.945,1.04a22.7,22.7,0,0,0-3.554-2.505c.359.4.718.8,1.077,1.21a29.775,29.775,0,0,0-10.909-4.021c-.1-.147-.2-.3-.307-.444Z" fill-rule="evenodd"/>
  </g>
</svg>
