<svg xmlns="http://www.w3.org/2000/svg" width="646" height="449.355" viewBox="0 0 646 449.355">
  <g id="Group_110" data-name="Group 110" transform="translate(19 -9527.507)">
    <rect id="Rectangle_89" data-name="Rectangle 89" width="646" height="448" transform="translate(-19 9528)" fill="none"/>
    <g id="footer-map-graphic" transform="translate(38.126 9528.121)">
      <g id="Group_96" data-name="Group 96">
        <g id="Group_95" data-name="Group 95">
          <path id="Path_256" data-name="Path 256" d="M833.722,10123.568l-.518.224-1.108-.623-1.467.091.185.49.293.014.951-.014.405.272-.5.775.21,1.335,2.076.356.367-1.117.178-1.091Z" transform="translate(-479.126 -10050.203)" fill="#1d1d1d" stroke="#585858" stroke-miterlimit="10" stroke-width="1"/>
          <path id="Path_257" data-name="Path 257" d="M788.6,10167.813l-.486-.057-.583.344.119.552.989,1.538h.44l1-.923-.3-.79Z" transform="translate(-479.126 -10050.203)" fill="#1d1d1d" stroke="#585858" stroke-miterlimit="10" stroke-width="1"/>
          <path id="Path_258" data-name="Path 258" d="M779.862,10136.849l.227.881,1.548,1.132.332-2.209.734-.782.216-.636.486-.644.479-1.475.039-.979-.15-1.041-.525-.141-.989.615-.073.686-.734.748-1.034-.189-.958.531-.1,1.762.217,1.286Z" transform="translate(-479.126 -10050.203)" fill="#1d1d1d" stroke="#585858" stroke-miterlimit="10" stroke-width="1"/>
          <path id="Path_259" data-name="Path 259" d="M741.181,10145.02l.815.706,1.146-.049.884.762.839.252.93.552-.405-1.314-.217-.342-.084-.588.22-1.229-.331-.454-.657.915-.6-.035-1.1-1.069-.14-1.377-.332-.811-.807.23.073.979-.073.35.178.538v.28l-.374.384-.367-.118.039.824Z" transform="translate(-479.126 -10050.203)" fill="#1d1d1d" stroke="#585858" stroke-miterlimit="10" stroke-width="1"/>
          <path id="Path_260" data-name="Path 260" d="M783.661,10156.77l-.119-.489-.405-.377-.353-.112-.741.056-1.041.042-.479.126-.021.518.245.607.412.8.21.469.2.245.44-.1.367.53v.7l.069.23-.472.839-.262.958.552-.476,1.073-.35.518-.251.074-.741.328-.588.1-.685-.29-.336-.549-.453Z" transform="translate(-479.126 -10050.203)" fill="#1d1d1d" stroke="#585858" stroke-miterlimit="10" stroke-width="1"/>
          <path id="Path_261" data-name="Path 261" d="M782.92,10162.284l-.479.259-.293.524-.1.378-.039.523-1,.72.293,2.972.748-.867,1.132-1.286.366-.454.074-.329.269-1.132-.44-.762Z" transform="translate(-479.126 -10050.203)" fill="#1d1d1d" stroke="#585858" stroke-miterlimit="10" stroke-width="1"/>
          <path id="Path_262" data-name="Path 262" d="M732.191,10174.454l.157,1.09.405.553.406-.146.433.377.636.454.622.615,1.331-1.069-.342-.706-.067-.972-.7-.727-.263-.783.518-.895.891-.615-.381-.782v-.616l.44-.657-.583-.727-1.1-.056-.367.363-.329.573-.122-.573-.618-.237-1.08.112.074.7-.172.832.172.608.412.252.038.14-.741.755-.367,1.075.622.553Z" transform="translate(-479.126 -10050.203)" fill="#1d1d1d" stroke="#585858" stroke-miterlimit="10" stroke-width="1"/>
          <path id="Path_263" data-name="Path 263" d="M714.665,10223.215l.549.217.405.649-.7.252.228.95-.406,1.021.291-.035.182-.37.15-.1.112.035.7.265.954-.656,1.175-1.133.563.028.472.237,1.251-.58,1.182.063.112.769.51.084.7.014.675-.321.1-.42-.447-.266-.832-.021-.489-.5-.892-.364-.7-.482-.074.518-.472.546-.811-.351.077-.307-.15-.266-.077-.657.077-.846-.661.153-1.293,1.209-.587-.643-1.4.35-.15-.8-1.028.965.1.686Z" transform="translate(-479.126 -10050.203)" fill="#1d1d1d" stroke="#585858" stroke-miterlimit="10" stroke-width="1"/>
          <path id="Path_264" data-name="Path 264" d="M632.849,10390.361l-.44-2.146-.636-.412-.7-.985-.734-.14-.51,1.286-.147,1.8-.412.622.119,1.258v-.259l1.919-.146Z" transform="translate(-479.126 -10050.203)" fill="#1d1d1d" stroke="#585858" stroke-miterlimit="10" stroke-width="1"/>
          <path id="Path_265" data-name="Path 265" d="M841.684,10077.281l-.7-.755-.489.105h-.367l-.44-.315-.951.154-.968-1.133-.217.329.039.706.583,1.663.367.5.989-.015,2.366,1.014.81-.259.888-.5.587-.266.479-.042.51-.237-.07-.916-.807-1.866-.772-.531-.622-.175-1-.063.112.322.7,1.091.252.992-.4.125Z" transform="translate(-479.126 -10050.203)" fill="#1d1d1d" stroke="#585858" stroke-miterlimit="10" stroke-width="1"/>
          <path id="Path_266" data-name="Path 266" d="M769.07,10153.54l1.625.7.734-.37,2.464-1.839,2.174-2.013.563-1.069-.489-1.042-1.842-1.244-1.062.2-.479.434-.332.531-.524.523-2.17,1.021-.328-.1L769,10150.3l-.293,1.685Z" transform="translate(-479.126 -10050.203)" fill="#1d1d1d" stroke="#585858" stroke-miterlimit="10" stroke-width="1"/>
          <path id="Path_267" data-name="Path 267" d="M775.189,10161.327l-4.973-2.042-.366,1.706.366,4.69.661.58,1.429.8,1.454,1.259.538,1.984,1.035-.775.919-.511.817-.069.661.51h.807l.084-1.755-.366-1.789-.713-1.685-.913-1.5Z" transform="translate(-479.126 -10050.203)" fill="#1d1d1d" stroke="#585858" stroke-miterlimit="10" stroke-width="1"/>
          <path id="Path_268" data-name="Path 268" d="M817.88,10431.5l.077-.182-.444-.183.112.364Z" transform="translate(-479.126 -10050.203)" fill="#1d1d1d" stroke="#585858" stroke-miterlimit="10" stroke-width="1"/>
          <path id="Path_269" data-name="Path 269" d="M816.443,10431.539l-.15.433h.269Z" transform="translate(-479.126 -10050.203)" fill="#1d1d1d" stroke="#585858" stroke-miterlimit="10" stroke-width="1"/>
          <path id="Path_270" data-name="Path 270" d="M817.184,10430.218l.15.182.031.077.147-.077-.035-.231-.038.05v-.126Z" transform="translate(-479.126 -10050.203)" fill="#1d1d1d" stroke="#585858" stroke-miterlimit="10" stroke-width="1"/>
          <path id="Path_271" data-name="Path 271" d="M817.027,10430.951l.038.028.157-.077-.039-.174h-.038l-.035-.078-.22.112.1.188Z" transform="translate(-479.126 -10050.203)" fill="#1d1d1d" stroke="#585858" stroke-miterlimit="10" stroke-width="1"/>
          <path id="Path_272" data-name="Path 272" d="M789.257,10117.417l1.37.531.951.517,1.028,1.119.779,1.133.147.53,1.321-.614.853-1.119.772-1.565,1.069.175,2.031.65,1.474.021-.891,1.607-.583,1.671.143,1.51,1.331,1.1,2.5-3.25,2-4.425.772-4.8-1.112-4.438-1.062-.728-1.22.1-1.356.622-1.335.847,1.845.754.367,1.476-.51,1.853-.885,1.887-.485-1.048-.623-.462-.734.321-.636,1.188-1.146-.943-1.283-2.076-.919-1.2-.105,3.663-.367,2.117-1.223.888-1.915-1.271-1.7-2.258-1.535-1.1-1.513,2.181,1.695.482Z" transform="translate(-479.126 -10050.203)" fill="#1d1d1d" stroke="#585858" stroke-miterlimit="10" stroke-width="1"/>
          <path id="Path_273" data-name="Path 273" d="M831.146,10073.976l-.517-.748-.742-.713-.915-.65-1.175-.5v.839l-1.146-.671-.518-.168v-.782l1.542-1.769-.367-1.664.182-1.216,3.212-.482.846-.28-1.251-.6-2.5-.741-3.393-2.67-.674-.336-1.356-.873-.622-.916,2.8-.657.734-.559-.059-.553-1.185-.258-5.459.027-2.136-.462.545-1.257-4.222-2.6-1.146-2.517-1.8.587-1.478,1.762-.15,1.013.37.273.14.615-.14.6-.37.267-.525-.112-.583-.279-.4-.308.217-.218-1.027.021-.623-.286-.636-.37-.989-.2,1.7,5.907.8,1.691,1.409,1.762,3.124,3.062,1.286,2-.772.308-1.024.895-.7.476,1.209.943,1.136,3.48.968,1.572,1.765,1.063,1.912.132,1.513-1.1.623-2.629,1,.77.622-.057.951-.713.818,1.678-.451,1.706-1.283,1.72-1.66,1.643.485.9.21.686.231,1.774h-.926l-.367-.81-.51-.588-1.625-1.125-.772,3.124.549,3.621,1.513,1.929,2.139-1.922,3.6-.266,3.984-3.307,2.464-4.054-1.758-2.5.878-.678Z" transform="translate(-479.126 -10050.203)" fill="#1d1d1d" stroke="#585858" stroke-miterlimit="10" stroke-width="1"/>
          <path id="Path_274" data-name="Path 274" d="M819.47,10229.03l1.062-1.062-.255-1.126V10226l2.464-1.139-1.318-1.874-3.212-1.83-2.869-1.035-3.683-1.1-3.582-1.53-3.788-2.229-1.185-.189-.772.329-.7.573-1.069,1.37-2.87,5.074-1.22,1.446-5.012,3.74-.178.392.545.713,1.08.4,1.5-.579-.021,5.158.366,2.614.913,1.887,2.174,1.328,1.849-.294,1.691-.922,1.8-.546,2.17-.16,1.08-.363.472-.692.517-1.188,1.22-.07,1.4.225.986-.266.674-2.021-.342-2.32-.7-2.468-.412-2.426,1.258.973,2.9,4.067.234-.622.329-.5.256-.573.112-.817,2.209.9Z" transform="translate(-479.126 -10050.203)" fill="#1d1d1d" stroke="#585858" stroke-miterlimit="10" stroke-width="1"/>
          <path id="Path_275" data-name="Path 275" d="M781.452,10226.423l-1.107-2.271-.923-5.074-1.692-1.552.178-.881-.028-.713-.3-.756-.706-1.006,1.006-.377,1-.126,1.024.139,1.139.364-1.8-2.838-1.514-.069-1.7.95-2.537.279-1.88-.811-.077-1.237.713-1.811.51-2.481v-4.592l-.856-3.816.367-1.469.64-1.635.1-1.678-1.111-1.565-.545.3-.444.16-1.51.3-.588.349-.629.6-.958.56-1.586.244-1.251-.377-.951-.965-.563-1.244-.433-2.642-1.041-1.943-.293-1.23.045-1.426.622-2.433.15-1.188-.112-1.411-.583-2.615-.122-1.51.234-1.565,1.356-3.48.741-.679,1.759.56,2.555,1.447,1.356-.79.255-.965-1.318-5.382-1.028-1.629-3.026-2.7-1.482-2.894.517-2.565,3.062-5.025,1.88-5.074.951-5.1-.217-4.9-1.8-4.452-.555.6-.779.566-.329.518-1.1-.825-.815-1.168-.541-1.334-.374-1.356-.112-.727v-2.194l-.182-1.524-.479-1.873-.852-1.279-1.318.3-.846,1.279-.524,1.783-.332,3.418-.44,1.313-1,1.35-1.953,2.013.042-.538-.618-.356-.706-.028-.367.482-.074.818-.234.594-.367.511-.583.614-.591,1.965.919,5.893.084,2.739-.667,1.775-1.213,2.027-1.552,1.405-1.548-.154.525,1.867.807,1.5,1.985,2.53.248-.2,1.087.8.734,1.44-1.664,3.285.039,3.418-.444,1.427-1.108.817-1.1-.084-1.185-.462-1.22-.271-1.758-1.392-1.807-2.67-1.625-1.691-1.063,1.545.185,3.194,3.065,5.046.989,2.769-1.44.076-1.041-.447-.657-.915-.216-1.385h-.885v.916l-.741,1.782-.115,7.123.7,1.167,1.586.069,1.7-.223,1.108.251-.2.623-1.283,2.425-.185,1.16,1,2.559,1.8,1.244,2.174.377,2.066.021,1.618.441,2.069,1.069,1.8,1.35.845,1.265-.552.74-1,1.769-.555,1.8.734.817,1.737,3.831.706.979.44,1.139-.231,1.027-1.283.657-1.429-.014-.524-.649-.189-.958-.741-1.454-.867-1.272-.93-.88-.779,1.041-.878-.119-.846-.713-.405-1.313-1.031-1.839-2.18-.937-2.059-1.153-.518-2.5h-.915v.922h-.776l-1.583-1.936-1.258-.993-.472-1.209.8-2.593-1.44.622-1.468.188-1.286-.419-.849-1.23h2.5l-1.653-3.439.839-.559.329-.385.486-1.5h-.815l-.81.644H732.9l-.588-.531-.485-.95-.657,1.174-.15.5H730.2l-.427-2.936-1.88-.175-1.146,1.167,1.807,1.1-1.027,2.027.912.965,1.552.755,1.028,1.37-.584.488-3.582,4.488,1.776.649,1.918.986,1.514,1.334.618,1.692-.112,3.453.444,1.628,1.356,1.188.776-.014,1.3-1.328.877-.35.92.371.6.873.434,1.007.518.769,1.513,1.859.367,1.538-3.177,16.426-1.175,1.922-2.24,2.069-2.583,1.126L730.2,10226l-.427,1.6,1.024,1.467,1.513,1.413,1.216,1.4-1.74,1.727-4.124,1.069-1.216,2.713-1,.447-1.1.321-.891.44-.427.678-1.22,2.754-3.544,3.327-2.135,1.286-.958-.832-1.069-7.3-.622-1.509.405-.721.178-.538.269-1.342-1.147.88-2.4.917-.7.8-.157,1.7.742.873,1.139.846.853,1.615-2.734.35-.657.895v1.342l-.849,1.615-1.535-.832-1.88-.728-1.992-.377-1.915.259-1.223.943-1.474,1.74-1.213,1.873-.406,1.314.961,1.636,1.437-.244,1.467-.944,1.185-.447,1.953.985-.444,1.328-1.031,1.65.374,1.914-1.88.435-1.953.713-1.7.979-1.108,1.223-.951-.5-.367-.049-.367.251-.817.3.856,1.615.4,2.047-.185,2.118-1.073,1.859-1.954,1.294-1.88.16-3.31-.615-1.918.392-2.464,1.74-1.467.385-2.517-.2-.807.678-.437,2.042.038,2.488.661,1.887,2.283,4.173.255.343-.112.531-.661,1.489-.486.53-.87.651-.775.817-.332,1-1.37,1.243-2.615-.895-1.992-1.594.591-.839,1.073-.853v-1.971l-.583-3.9-1,1.244-4.225,9.206-.779,1.222-5.938,2.951-2.1,1.929,1.4,2.663-1.325,1.125-4.41,5.928-.93,1.971-.622,1.916-.192,1.362-1.321,2.063-5.753,5.521-1.318,3.354-.846,1.343-9.691,7.157-1.042,1.167-.769.539-.8.153-.636.343-.479,2.09-.583.378-.846.182-.923.433-2.247,1.832-1.325.419-1.4-.5-1.318,1.551-.444,1.2.1,2.741-.256,1.292-.583.812-.591.608-.255.622-.779.93-3.46,2.942-2.5,4.306-7.437,5.116-2.807,6.893-2.615,1.733-2.831,1.37-1.821,1.468-.293,1.411.525,2.615-.231,1.062-.793.657-8.852,5.662-1.14,1.2-2.32,3.432-1.147,1.279-1.573,1.224-1.08-.622-.583-.973-.217-1.181.217-1.391-2.831,1.258-2.628.1-4.921-.587-1.782,1.3-2.869,5.731-1.992,1.329-1.611.552-4.9,3.062-1.479,1.468.623,1.111.216.915-.4.882-.668.636-.21.259-1.513,4.158-.807,1.028-1.4,1.034-1.1.44-1.409.217-1.185-.217-.472-.8-.441-1.118-.964.251-1.514,1.224-2.831.377-1.583,1.014-.957,1.853-.92,2.7-2.135,3.564-9.587,8.137-2.943,3.138-8.426,13.288-1.821,2.223-2.167,1.691-5.074,1.5-2,1.915-2.492,3.942h1.646l-1.279,1.811-1.842,1.922-1.807,1.5-1.331.637-1.178,1.251-.583,2.5-.852,1.88-1.919-.636.451,2.439.29.154-2.621,4.158-1.1,2.362-.657,2.971-1.073.734-.367.636-.039.636.077,1.321-.077,1.846.182,2.572-.143,1.224-.44.579-.856.776-.846,1.027-.622,2.517-1.108,2.426-.29,1.425.328,3.433.877.44,2.957-3.537,3.282-2.433,1.758-1.685.779-2.062,4.159-1.259.409-.587.923-2.062.4-.664,3.25-2.4,4.127-1.832,11.345-3.341,1.433.057.618,1.146.563.518,1.147-.146,1.177-.734.507-1.328.734-2.691,3.32-4.39.958-2.537-.112-5.158,1.024-2.769,2.809-1.216,7.032.965,2.54-.182,2.223-.734,1.5-.8,1.625-.713,2.614-.259,2.726-.622,2.247-1.545,8.094-8.771,8.563-6.745,10.964-5.823,1.59-1.243,5.459-7.928,2.688-5.4,1.028-2.888.447-2.285.367-.915.811-.21.8.028.486-.183.039-.6-.157-1.355.119-.553,1.663-3.243.661-3.754.622-.524,3.212-1.467.951-.665,2.163-.957,7.455-.259,1.363-.545,2.761-1.664,1.283-.363h5.019l2.17-.476,1.356-1.216,1.88-3.327,6.12-6.473,1.842-1.069,1.139-.3,4.529-3.026.661-.58,4.687-6.221,1.321-2.286.559-2.209.661-1.293,4.277-4.243,9.353-15.175.7-.51,2.464-.482.44-.706.23-.95.622-1.042,1.185-1.573,1.174-2.243.779-2.349-.192-1.824,3.173-.294.293-1.915-1.918-1.663-3.2.517.548-1.391-.143-1.209-.772-.965-1.37-.7.406-1.824-.445-2.209-.1-1.88,1.429-.79,2.062.188.524.588-.485,2.194.7,1.747,1.625,1.314,1.918.5,1.587-.665.839-6.626-1.1-3.181-2.583-5.145-.465-3.857.8-3.1,2.066-2.621,2.691-1.364,2.792.77,3.579-2.474,3.2-1.58,3.39-.825,5.9-.3,2.615-.412,1.317-.363,1.4-.566,2.433-1.434,1.185-.517,1.356-.14,2.981.3,1.4-.16,1.3-.56,2.419-1.475,1.336-.553,5.6-1.509,4.494-1.859,2.981-3.411,1.992-11.681,2.426-5.249,3.505-4.836,8.5-8.3,2.733-1.873,2.436-.783,2.464-.5,3.716-2.265,1.706-.672,1.177.043,1.94.705,1.475.175h5.012l2.582-.307,1.545-.86,2.132-3.033,5.641-4.872,1-.629,2.5-3.816,1.22-.588,2.869-.636.965-.447,1.88-2.971-1.37-1.727Z" transform="translate(-479.126 -10050.203)" fill="#1d1d1d" stroke="#585858" stroke-miterlimit="10" stroke-width="1"/>
        </g>
      </g>
      <path id="Path_276" data-name="Path 276" d="M742.021,10213.624l-5.081,2.671.97-5.657-4.11-4.007,5.681-.826,2.54-5.147,2.54,5.147,5.681.826-4.11,4.007.97,5.657Z" transform="translate(-479.126 -10050.203)" fill="#fff"/>
      <line id="Line_62" data-name="Line 62" y1="52.651" transform="translate(262.895 179.598)" fill="none" stroke="#fff" stroke-miterlimit="10" stroke-width="1" opacity="0.48"/>
    </g>
  </g>
</svg>
