<svg id="gmap-logo" xmlns="http://www.w3.org/2000/svg" width="16.741" height="24.011" viewBox="0 0 16.741 24.011">
  <path id="path835" d="M620.6-3.209a23.308,23.308,0,0,1,1.892,2.794,14.61,14.61,0,0,1,1.039,2.634c.21.606.408.791.828.791.458,0,.668-.309.828-.791a14.853,14.853,0,0,1,1-2.584A28.915,28.915,0,0,1,629-4.334a24.563,24.563,0,0,0,2.782-4.006,9.754,9.754,0,0,0,.952-4.241,8.43,8.43,0,0,0-.94-3.919l-2.72.729-1.657,4.352-.408.593-.087.111-.111.136-.185.223-.272.272-1.471,1.2-3.672,2.127Z" transform="translate(-615.988 21.001)" fill="#34a853"/>
  <path id="path833" d="M589.9,4.246c.9,2.052,2.621,3.845,3.8,5.428L599.915,2.3a3.264,3.264,0,0,1-2.46,1.15,3.185,3.185,0,0,1-3.2-3.19,3.412,3.412,0,0,1,.729-2.065L590.766-.675Z" transform="translate(-589.084 8.118)" fill="#fbbc04"/>
  <path id="path831" d="M636.007-49.8a8.3,8.3,0,0,1,4.9,4.13l-4.97,5.922a3.456,3.456,0,0,0,.729-2.065,3.221,3.221,0,0,0-3.19-3.19A3.348,3.348,0,0,0,631-43.865V-47.6Z" transform="translate(-625.102 50.183)" fill="#4285f4"/>
  <path id="path829" d="M599.1-49.908a8.308,8.308,0,0,1,6.392-2.992,8.548,8.548,0,0,1,2.547.383l-5,5.935h-3.536Z" transform="translate(-597.146 52.9)" fill="#1a73e8"/>
  <path id="path827" d="M584.116-19.24A9.571,9.571,0,0,1,583.3-23.2a8.325,8.325,0,0,1,1.966-5.4l3.944,3.326Z" transform="translate(-583.3 31.604)" fill="#ea4335"/>
</svg>
