<svg id="ph-map" xmlns="http://www.w3.org/2000/svg" xmlns:xlink="http://www.w3.org/1999/xlink" width="142.05" height="242.143" viewBox="0 0 142.05 242.143">
  <defs>
    <linearGradient id="linear-gradient" x1="0.637" y1="2.184" x2="1" gradientUnits="objectBoundingBox">
      <stop offset="0" stop-color="#3cc8ab"/>
      <stop offset="1" stop-color="#1b82ba"/>
    </linearGradient>
  </defs>
  <g id="layer5">
    <path id="path7868" d="M476.513,28.5l-1.021,2.024.639.062.7-1.068Zm2.263,5.235-.643.416-.645,1.593.721-.214-.11-.571,1.01-.859-.333-.365ZM476.3,35.866l.3,1.081.462-.6Zm1.995,11.5-1.133.272-.03.336,1.174.567.292-.919-.3-.256Zm-8.55,2.605-.661.409.707,1.086,1.461.66.712-.353-.3-.566-.14-1.09Zm-2.717,3.39-.3,1.337.8,1.031.106-.94Zm10.816,2.462-.794.235-.859,2.427.464.185,1.814-1.9-.263-.536-.361-.408Zm-8.207,1.634-1.594.336-.013.277,1.876.168,1.045-.465Zm-8.46,3.868-.5.34-.12.9-2.349.343-.6.55.132,2.643-1.6,3.5.105,1.29-1.263,3.342.311,1.027-.871.519-.285,1.822,1,.562.611,1.951-.521.984-.09,1.736.5,2.973-.133.69-1.583,2.133-.19,3.073-.448.03.448,1,.436,3.783.9.945.068.951-1.07,1.287.5.359-.433-.053-.511.622-.1-.572-1.231.343-1.024-.2-.488-.352-.263-1.31-2.733-1.4L448,95.2l-1.682.344-.68,2.311.333.982-.33,2.892.22.442,1.223-.511.6,1.124-.014,1.648-.395.312.772.789-.226,1.4.876,1.238-.337.577-.574-.108-.2.807,1.719,2.388.7,3.1.054,2.532.342,1.122.3-.111-.3.325,1.406.7.5-1.835,1.219.813-.711.877.422.3-.445.26.633,1.136,1.2.494L455.14,124l.955.52,1.784-.688-.091-2.712L457.115,120l.128-1.7.417-.029.18-.958.294.269-.174,1,.4-.2v-.613l.306,1.285,2.918.386,1.507,1.612.607,1.788-.206.481-1.359.643-2.423,2.4-1.26.433-.591,1.037.207.283-.409.1.352.264-.251.358.575.431.225,1.685-.492.336.711,2.767.294-.04-.109-1.083.892.058-.266-1.077,2.527.227.524.456.245,1.469-.611,1.348,1.71-1.308.731.88-.214,1.337.61.2,1.151-.3,1.766.665,1.41-1.084.813.158.5-.566-.409-.093-.042-1.427.753-.829,3.019-1.11.513-.646,3.89,2.381.945.373.091-.292,1.972,2.721,1.838.457.742.635L486,140.279l.267.86-.21,1.069,1.222.975,1.508-.818-.264-2.254-1.552-2.762.958.646.054-.246-2.035-1.72-.177-1.041.4-.212-.042-1.26-1.419-1.916,1.511.2.309-.4,1.707,1.478,0,.543,1.469.233.27.292-.276.11,1.615,1.329-.7.613.654.714,1.659,1.176,2.893,1.172.325,1.349,1.615,1.848-.32,1.726.457,1.613,1.1-.475.827.109,2.41,2.154.643.1.725-.667-.309.7.305.288-.116-.356.626-.017-.309.262.2.408.556-.5.3.2.815-.348.794-1.3,1.937.292.061.651-.4.48-.641,0-.766.574-.643-.46-.357.5-.663.118.712.452.007,1.272.53,1.063.805.344.732,1.129,1.055.142.592-.3-.1-1.073.6-.724.2-2.053-.391-1.527.541-1.27.482-.292-.018-.546-1.005-.256-.51.971-1.311-1.229-1.608-.815-1.254,1.36-.764-.135.359-.7-.3-.658.266-1.041,1.295-.065-1.65-1.671L504,139.653l-.854-1.133-1.565-1.281-.36.119-.142-.639.645-1.75,3.336.524.912-.818h1.149l.412.418-.408-1.038-1.966-.8L503.8,131.8l-.445.744-2.777-.539-.7-.613-.4.826-.31-1.551h-.3l.211-.408-.643.315.231-.408-.446-.837.054.419h-.51l.2.306-.912-.255.029.814-.531.314,1.058.87.668-.712-.146.63-.665.5.51,1.285-.194.465-1.129.872-1.716.135-.859-.8.09-1.279.477-.6-.1-1.31-.711-.511.133-1.121-2.046-1.694-.438-.807-2.844-1.277.159.887-.682.1-1.712-.957-.335.042.21.316-.531-.327-.984.327-.736.947-.158.994-.356-.078.212,1.031-.67.588-.6-1.439.065-.885-.284.768-.718.183-.178.555-.3-.316.672,1.2,1.545,1.067-.3.691-1.615-.282.713,1.235-4.347-1.328-3.009-2.888.4-.873-.4-.507.045-.722-1.062-1.327-.8-3.184.085-.893,1.632-.612-1.918-1.921.3-.2L471.4,114.92l-.392-1.791-1.328-1.253-.018-1.67.535.062.685-.956.334-1.418,1.963-1.925-.51-.2.7-.93-1-.561-.289-.817.184-1.3,2.719-2.412,4.385-1.555.542-1.114.7-.081-2.02,3.436.9-.7.261-.822,1.865-1.553.413-1.235-.512.409.512-1.849-.21.307-.2-.6,3.211-5.381.738-2.923.826-1.509L486,83.842l-.735.383-.5-.474-.109-1.936.5.144-.427-.8-.247-.149.07.346L484,80.64l-.76.2-.92-.3-1.3-3.488-.4-2.154.7-3.7-.2-1.738,2.017-2.256.264-1.277L483,64.927l-.669-.586-.24-1.082-1.213-.051-.493,1.732-1.948,1.685-1.971.036-3.055-1.219.068.83-.847-1.059L465.5,61.353,462.856,62.5l-1.119-1.087-.556-.085ZM448.994,95.679l-.907.672,1.037,1.1.178-.576Zm28.58,19.4-.5.414-.727-.312-.262.5-.118.989.869.772.091.868.738,1.069-.369,1.407.463.462.941-.5.287-.732-.817-2.693.658-.454-.11-.857.7.418.07-.316-.772-.41,0-.418Zm2.613,3.117.228.554,1.778,1.056.218-.46-.318-.46-.562-.092.1-.521Zm4.5,1.768-1.033.2-.327.435,1.153-.035Zm-6.583,7.476-.55.073.567,1.172,3.115,2.034-.063-.7-1-.734Zm33.1,2.09-.971.363-.188-.241-.3,1.337.194,2.554-.323,1.1-1.2,1.129.313.952,2.064,1.244.939-1.142.615-.073.606.7.3-1.527.785-.115-.275-1.841.412-.111-.412-.716.412-.408-1.3-.9-.319.4-1.359-2.694Zm-8.43,1.563.153.434-.736-.1.008.646.956-.342-.065-.379Zm-52.289,1.815.331,1.256,1.4.615.895.928.31-.264-.36-.3.159-.613-.5-.78Zm10.89,2.581.722.8.876-.05-.371-.31Zm3.813,1.76-.622.046.664.557Zm11.363.077-.609,1.506-.051,1.685.9,1.134,1.967,1.072,1.639-2.272.127-.444-.4-.455.2-.723-1.05-.3-.675-.979-.439.4-.563-.313-.3.325Zm-12.957.526-3.276.952-5.166-.907-1.2.592-.219.65.309.71.416.245.768-.6.651,0,.4,1.776.679.783-.167.279.9.136,1.3.98,1.373,2.3.1,2.558.478,1.526.833.211.852,1.206.057,1.83.952,1.343,1.323,1.349.342-.193.708.529-.391.072-.219-.378.184,1.186,1.931.552.412-.817,1.2-.824.6.517-.169-1.183.872.151-.458-.846.373-1.6,1.585-1.341-.287-1.4-.6-.957-.036-3.685,1.026-1.446-.382-.441-1.334-.079-.085-1.17-.8-.312-2.633-2.93-1.11,1.031-.19-.658-1.2-.084L463.3,138.26l.3-.409Zm41.082,1.9.439.561.648-.027Zm1.136.738-.043,1.255.405.607.416-.13-.17-.534.468-.837Zm.934.98.4.661,1.266.336.895-.575Zm3.329.815-1.077.35,1.22.374.708.187.189-.336Zm-16.858,1.206-.048.368-.653.264.432,1.386,1.274.452,1.834,1.945.98.385,1.821,2.082-1.311-1.817-.094-.747-.269-.492-1.5-.595-1.77-2.851Zm-18.729,3.086-.436,0,.153.626.366-.129Zm27.8,3.889-.383.95,3.049,4.279-.047-.563-.8-3.228Zm-21.965.316-1.755,1.1-.04,2.258-1.016,1.533-.049.546,1.2.876-.22.662-.345-.419-.069.753.783,1.1.155-.872.354-.364.192.214-.345-.617.918-2.579.441-3.576.4-.1Zm2.417.911-.5.519.5,1.44.465-.93Zm14.042.19.113,1.918.456.612-.813,2.926,1.115-.111.01.274-.512.348.256.444-.9.461-.38,1.823-.487.559.039.846,3.015-2.817.873-1.419.9-.258.9.449,1,1.627.822.124-.165.42.877.713.2-.2.192.408-.5.4.46.411,1.657.2,2.24,1.746.689,1.064.26-.277-.258-.834.049-1.128-.864-1.993.815.807-.068-.25-2.362-3.539-.6.1-.792-.689-.019.894-1.549-2.254-.754-.486-.718.288.31-.52-.835-1.06-1.739-.928-.7.091-.883,1.114.434-.861-.258-.768.266-.034Zm-11.079,1.487-.854.456.131.8,1.177.48,1.468,1.513.858-.614.255-1.276-.815-1.222Zm-20.9,3.217-.3.4.177.458.99.94-.043-.579-.409-1.052Z" transform="translate(-404.472 -28.5)" fill="#c4c4c4" opacity="0.58"/>
    <path id="path7863" d="M271.921,699.527l-.063.8.613-.112-.736.371-.362,1.271.7-.613,1.56,2.94,1.193.144.468.51.411-.929,1.4.622,1.305-.11.31-.511-.475.095.4-.862-.82-.819-.413.055-.42-1.3-.085,1.391-.411.2-1.5-.818.292-.409Zm.51,5.105-.413.619-.553-.214,1.005,1.746-.3.2.4.725.441.146.262-.453.409.2-.3,1.023-.411-.307.155,1.052,1.177-.667.484-1.2-.6-.409.162-.564.488-.092-.86-.487-.318-.256.416-.216-1.06-.083Zm5.12.2-.95.307.95,1.965-.066-1.5.32-.209Zm-5.891,6.771-.606.1.1.724-.7-.51-.211.809-.62-.562-.184.264.8.808.361-.4.55.1v.715l.543-.932Zm-5.37,1.38-1.123,1.643.05,1.287-.6.612.649.963-.247.988h-.559l-.622-.7-.111.576.488.95-.51-.326-.087.328.069,1.008.528.012-.079.822,1.493.7-.251.523.409.949-.33.077-1.644-1.436-.3-.817-.511.047.2-.864-1.017-.135.516.757-.5.6.628.362.115.822.632-.015.413.735-.38,2-.416.485-.589.026.4.715-2.1,1.8-.219-1.49-.51.316.309.613-.51.51-1.03-.09-.376.6.846.12-.135.6-1.1.409.127.7-.363.383-1.733.31.244,1.575-.459.518-.319-.109-.115-1.115-.723,1.421-.97.594.169.326-2.021,2.994-2.505,1.733-.4,1.078-1.712,1.623-.345.84-.872.555v.622l-1.917,1.644-.2-.51-1.25.092-.559.862-1.212.782-.325,1.1-1.564.3-3.234,4.261-.876.394-1.647,2.046-1.076,4.067,2.268-1.989,2.468-.531.776-2.309,2.79-.435,2.279-2.088,1.518-.866,1.813-3.64,3.352-.931,1.954-1.8,2.519-3.835.384-.121.51-1.3.388-.036-.2-.437-.391.064-.226-1.241.422-.073.088.553.621.139.1-.809-.5-1.485.348-.7,6.206-1.828,1.318-3.068,1.357-1.238,1.247-.514,1.659-.031,2.2-2.066-.786-.508-.55-1.491h.5l-.219-.343-.922.04.175-2.274-1.046.069-.4-.975.191-1.9.806-.052-.824-1.529.745-2.752-.215-.538-.433-.038-.309-1.248Zm1.634,3.338-.591.316-.042.52.847-.429Zm-.491,1.532v.776l.491.561.512-.1-.233-.817Zm22.27,3.023-.918.379-.213.544,1.023.159Zm-18.475,3.865-1.254,1.462.378.065.151,1.175,1.857-.358-.091-1.124.5.612.11-.306.5.062.4-.508-.9-.576Zm20.8,15.058-.61.827Zm-58.95,19.272-.9.826.128.389,1.085-.583-.31-.213Zm1.215.306-.674.174.148,1.9,1.027-.52-.062-1.252Zm-2.319,2.164-.087.32.646.019-.559-.339Zm-1.8.633-.729.491.51.52.553-.269Zm-1.231,1.1-.086,2.108.8,1.808,1.13-1.075-.026-2.779-1.056-.062-.456.52Z" transform="translate(-228.855 -572.107)" fill="url(#linear-gradient)"/>
    <path id="path7873" d="M621.469,678.365l.276.554-.269.312-2.911.261-4-.616-.653.2-.853-.589-.317.185-.106.559,1.685,4.659,1.5,1.857,1.12.7,1.625.316,1.194,1.922.925-.068-.439.714.579.191.866,1.255.527.3,1.108-.511.59.267.172.652-.309-.2-.554.665-.279,1.356-1.286.338.144.321-1.056.6.87.647.353-.544,1.4,1.133-.089,2.041,2.52.368,1.095,2.589,1.033-.859,1.182.672.28-.178.12.392.663-.571.854.571L631.2,700l.374-.167.534.576.756-.465.8.488.2,1.007.6.4.281-.443-.984-1.442-.281-.656-.951-.655.029.54-.467.167-.649-.34.164-.842,1.012-.873.04-.628-1.163-.843-.144-.532h-.409l.146-.468-.95-1.8.5-1.337-.278-.841-.462.1.1-.528.536-.068-.5-.6-.2-1.752L631,686.36l-.965-1.028.7-.307-.412-.306.866-.252-.555-.974-1.706-.544.091-.283-.6.214.1-.419-.612.317-.029-1.052.541-.49-1.139-1.491-1.557-1.183-.84-.018-.876.747-1.12-.7-.664.288Zm-10.926,1.8.516,1.087.117-.517Zm-40.8,5.328.377,1.7.434-.2-.109-.717Zm41.865.5-.6.087-.222.472,1.162-.3Zm-32.97,2.2-.983.6-.115,1.115-.517.746,3.391.67.334,1-.962,5.35.049,4.235-1.589,3.617.7,1.922-.77,2.074.253,1.13.972-.184,1.265-1.853,1.834-1.091,5.341-.845.6-1.132.933-.428.745.109.783-1.194-.128-1.506,1.077-.791h.912l.2-.519.183.417,1.142-1.108.19-.8.985.174.34-.462-.262-1.257.836-3.2-.441.022.14-.227-.409-.214.622-.438-.012-.9-1.087,1.024-2.777,1.373-.366-.415,1.01-.849-1.024-.382-.654-.859-1.552-.1-.3,1.031-.645-.387-.088.639-.473.259-.5-.818-1.113-.519-1.989-2.022-4.158-1.518Zm-7.2,1-.9.4,1.216.186.451-.281Zm47.908,2.173.116,1.063,1.337,1.71.363-1.027-.6-.409-.379-.787Zm-3.08.529-2.559.092,1.817,3.085,2.006-.189.233-.691-.373-.459Zm-2.692,2.023-.58.122.5,2.257.523.256-.228.692.729.389.2,2.605-.434.938.434.971-.323,1,.6-.017.148.48.993.441.71-.865-.194-.776,1.07-.28,2.3,2.7.325,2.142-.961,3.86.833,1.416-.389,2.091.215.509,1.505.254,2.189,1.716-.6-5.4.747.256.688,2.023.919.652-.149-1.4,1.752.265.2-.929-.218-.9-.888-.746-.068-2.543-1.085-1.5-1.565-.771-.015-1.348.591-1.848-.375-3.109.208-1.078-.269.3-.727-.735.035-1.72-1.92-.613-1.49,1.563-1.683.361-.524-.226-1.338-1.86-.34.877-2.059-2.481Zm-8.738,3.869-.6.767.424,1.3,1.2.093-.2-.465Zm4.409.229-1.278,1.515.208,1.475-.409-.307-.4,1.031.248.876-1.254,3.259-1.914,3.045.06.822-1.73,2.41-1.433,3.157-1.256,1.268-.175.945-.347.009.325,1.139-.646,1.681-.749,4.155.2,1.489,2.233-2.1,1.8-4.774.4-.3.346-2.635,2.073-2.437,1.1-.325,1.532-1.173.1-.757.194.3.324-.226.279-3.053.31-.2-.5-2.36.391-1.291.311-.659-.2-2.776-.556.111-.258-.316.614-.79.395-1.545.1-.535-.427-.121Zm-12.234,4.2-1.85,1.055-1.381.287-.613.883.287,1.895-.9,1.848-1.407,1.235.8,2.461.05,3.743-2.427,1.706-.955.291-1.213-.307-1.26.2-1.168,1.968.109,2.146.409-.214-.108.827.3-.214.262.262,1.328,2.459,1.551,1.34,2.759.813.524.617.177,1.269.957,2.091,1.11.688,2.9-1.082,1.286-2.234.052-1.291-2.062-2.907-.668-.228.616-.557-.617-.426.514-1.162-.2-2.568,1.965-3.381.8-3.806,2.072-3.01,1.305-4.217-.774-1.331-1.12-.335-.591.336-.027-.5-.908.1-1.206-.725-.68-.024Zm37.019,2.819-.65.043-.046.784,1.254.783.846-.128-.072-.386-.9-.093Zm-45.007.688-1.963,2.312-.136.559.384.314-1.045.685.8,1.256.85-.6.007.4.58-.167.771-.924.738-2.006-.382-1.416-.6-.409Zm26.4.725-.844.446.011.532,1.465.1.175-.362Zm-2.032.144-.637,1.5.24.206,1.144-.572.019-.943Zm11.906,8.058.122,1.419.779.522,1.106,1.746.456-.2-.145-.566-.968-2.252Zm-11.852.06-1.6.143-1.565.929-.962,1.654-2.422.965-.848,1.077-.4,1.273.912.353.128,1.334.967.412,1.877.331,3.367-.17,1.71-.773.279-.847,1.035-.8.3.418,1.115.046.409-.966-1.091-.894.227-.138.285-.1-.419-.718.184-.924.228.1-.1-.793-2.331-1.09-.328-.676-.6.623Zm4.052.317-1.251.423.114.651,1-.384Zm-11.256,7.451-1.677.766.333.555,1.388-.519.354-.474Zm-2.929,5.219-2.512,1.619,1.323,1.066,1.045.238,1.043-.449.281-.31-.359-.238-.21-.519.3-.5Z" transform="translate(-505.015 -554.963)" fill="#c4c4c4" opacity="0.58"/>
    <path id="path7882" d="M448.79,846.277l-.4,1.338-.7-.112v.714l-.593.207.292,1.755-.409-.111-.278,1.472.378.69,1.113-.408.3.461-.5.738,1.1,1.057.082.747.527.223.3-.56-.56-.694.369-1.664-.438-.873.126-.669-.424-.06.171-.573-.447-.5.693-2.271Zm6.377,6.005-1.295,2.353.456.558-.712.213,1.214,1.43-.1-.307,1.153.242.854-.432-.182-.619-.813-.418.4-.671Zm-9,3.533-.894,2.123,2.067,7.1-.334,2.854-1.109.531-1.9-.208-1.515-1.379-.456,1.184.141,1.967-1.2.691-2.8-2.459-1.557-.229-.407.574.09,3.554-.61.938.4,1.115-.3,1.439-1.325.365-.391.656.309-1.236-1.1-.092-1.505-.93-.149-.628-.944.253-1.235,1.4-.883,2.843.19.651-.623,1.02-3.872.675-4.3,3.058.122-1.1,1.22-.332,1.695-1.578-.563-4.305L421.166,874l-2.089-.946-.52,1.315-.875-.594-.13-1.142-1.7-.364.577,1.1-.952.24-.785,1.5-1.12.216-.69-.346-2.25.78-.732,1.391.062.815-.562.512.816,1.139-1.005,1.056-3.089.694-.636-.242-.187-.487-.6.833-2.947.628-2.739,1.293-2.157,3.132.126,2.507.477.216-1.117,1.125-.52,2.213.241.867-1.729,1.345-.524,1.161.017,1.243.56,1.171,1.484.921,1.187.314.526-.474,1.309-2.561.543-2.921,1.354-1.171-.361-1.194,1.352-1.338.054.632.352-.346.266-.833h-.764l.151-.45.994-1.3,1.576-1.172,1.258-.213.511.511,1.113.161-.309,1.082.51,2.146-.46-.119-.169.656.535.484.8-.248.6-1.07.492.92.822.2.643-2.734.994-1.291.33,1.2.682.526-.14.556-.73.247.192.89.632.481.885-.645.536.058.909,1.492,1.307.774.394-.6-.09-.657-1.443-1.789.127-.254.444.2.113-.656,1.259-.66.178-.677-.781-1.385,2.091-.569,1.721.448,1.327,1.479,1.716.174,2.269,1.439,1.63,2.8,1.04.173-.926,2.659-2.269,1.665-.8,2.242-.142,1.99.473.692.578-.2.283,3.7-.336.154.323,1.567,2.157,3.231,5.65,2.979.292.454,5.261,2,1.551-.047.289-.344,1.017-3.353,1.365.235.4,1.7-1.424,2.707.833,1.052.742.328.3,1.893.925.1.957-.669,3.4-4.975.469-1.352.108-1.634-1.716-5.229-.539-.384-.275.18-1.5-1.54.036.413-.427-.01-.411-1.277.382-2.059,1.133-1.517.431-1.531,1.376-.585.6-.665.352-2.364,2.038-1.408.681.227-.038,1.228.764,2.286,1.234,1.419-.046,1.278.57.81.837.363.234,4.914,1.546,3.455.837-6.908-1.25-2.38.3.307-.01-.625.747.088.973,1.814.452.172.054-.938-.61-.659.115-.833.586-.766,1,.3.715-.345.151-.944,2-2.868.079-.284-.713-.363.3-1.328-.342-.542.621-.588-.58-2.41.2-1.393-1.4-.408-1.535-2.08.183-.713.847-.7-.318-.979.51-.747-.1-2.164-1.437.793-.337-.41.732-1.172-.822-.81.7-.726-.146-.9.61-.158-.093-.4-.517-.736-2.2-.2.122.509-1.034-.092-.7-1.19,1.283-1.215.835.046-.3-.725.969-.519.668-1.271-.481-1.541-1.967-2.046.6-3.182-2.381.893-.9-1.177-.04-1.094-.56.239-.659-.346.83-.632.079-.5-.3.408-.269-.588-1.251-.671-3.02-1.109-.488-.548-.311-1.6-1.907-1.022Zm6.988.943-.284,2.109.462.789.547-.348.09-1.44-.256-1.031Zm-18.029,7.627-.908.468-.151.547.524.852,1.442.718.457-.282.1-.906-.355-.643Zm-26.515,27.12-.324.6-.8-.5-.5.7.093.942.61.4,1.6-.919-.091-.511.4.093Zm41.325,3.617L449.325,897l.64.269.871,2.367.212-.81-.138-2.8ZM344,897.349l-1.221.433.263.537.852.163.407-.113-.151-.515.251.106Zm52.286,4.586-1.859.949-1.737.245-.224.623.112.395.89.27.074,1.071,1.029.879.18.593,3.329-.692.687-1.8,1.468-.481-.566-.447Zm-6.615,1.024-.5.608.5,1.051.184-1.436Zm-15.122,4.362-1.374,1.967,1.215-.033.4-1.169Zm6.677,4.244-2.01,1.228-.5.808.915,1.127,1.091-.57,1.07.533,2.157-.807.5,1.05.452.2,1.867-1.334.026-.586-.583-.278-1.622-.307-.786.408-.569-.968Zm10.8.3,1.192,1.124,1.257-.47h-.6ZM383,915.292l-.409.613.4.292L384,916l-.2-.3Zm-3.8,1.331-.2.738.28.146.286-.5Zm-.65.827-.775.122-.118.42,1.225-.264Zm.008,1.937-.543.609,1.089.526.1-.591Zm66.4,2.142-.626.652,1.242.287v-.853Zm-76.289,1.288-1.329.824-.154.464-1.795.544-2.1,1.377-.036,1.059,1.981-.235,1.048-1.272,1.1.059.3-.918.361.52.542-.316.032,1.017.47.322.521-2.267-.467-.046-.086-1.057Zm-5.726,3.353-.773,1.153.747-.2Zm-.077,2.98.08.63.564.253.084-.629Zm-5.26.286.4,1.9-.091,1.8.692-1.624-.3-1.3-.213-.641Zm5.815,1.225-.17.255.563.079Z" transform="translate(-321.148 -690.991)" fill="#c4c4c4" opacity="0.58"/>
  </g>
</svg>
