<svg xmlns="http://www.w3.org/2000/svg" xmlns:xlink="http://www.w3.org/1999/xlink" width="85.602" height="85.602" viewBox="0 0 85.602 85.602">
  <defs>
    <filter id="Path_38" x="0" y="0" width="85.602" height="85.602" filterUnits="userSpaceOnUse">
      <feOffset dy="5" input="SourceAlpha"/>
      <feGaussianBlur stdDeviation="4.5" result="blur"/>
      <feFlood flood-opacity="0.169"/>
      <feComposite operator="in" in2="blur"/>
      <feComposite in="SourceGraphic"/>
    </filter>
  </defs>
  <g id="white-play-icon" transform="translate(13.5 8.5)">
    <g id="Group_10" data-name="Group 10">
      <g transform="matrix(1, 0, 0, 1, -13.5, -8.5)" filter="url(#Path_38)">
        <path id="Path_38-2" data-name="Path 38" d="M29.3,0A29.3,29.3,0,1,0,58.6,29.3,29.334,29.334,0,0,0,29.3,0ZM40.95,30.328,23.857,41.316a1.221,1.221,0,0,1-1.881-1.027V18.313a1.221,1.221,0,0,1,1.881-1.027L40.95,28.275a1.22,1.22,0,0,1,0,2.053Z" transform="translate(13.5 8.5)" fill="#fff"/>
      </g>
    </g>
  </g>
</svg>
