<svg xmlns="http://www.w3.org/2000/svg" width="23.791" height="19.1" viewBox="0 0 23.791 19.1">
  <g id="white-tree-accent" transform="translate(-205.803 -8.352)">
    <path id="Path_27" data-name="Path 27" d="M217.525,27.433c-.024-2.506-.364-11.548-5.726-10.488.656-2.072,3.147-2.157,4.628-.981a3.623,3.623,0,0,1,.034-3.817,9.061,9.061,0,0,0,1.093-3.731.193.193,0,0,1,.287,0,9.046,9.046,0,0,0,1.093,3.731,3.619,3.619,0,0,1,.034,3.817c1.481-1.176,3.973-1.091,4.628.981-5.362-1.06-5.7,7.982-5.726,10.488a.773.773,0,0,1-.345,0" fill="#fff" fill-rule="evenodd"/>
    <path id="Path_28" data-name="Path 28" d="M219.381,26.5c-.232-3.3,1.146-6.848,3.8-8.023a4.748,4.748,0,0,1,5.929,1.687c.762,1.238.61,3.394-.4,4.041a2.228,2.228,0,0,0-.123-1.893c-.761-1.152-2.09.017-3-1.878.7,1.438.24,3.053-1.623,2.821a.977.977,0,0,0-.319-1.755c-2.509-.9-3.961,3.258-3.961,5.03C219.666,26.614,219.394,26.585,219.381,26.5Z" fill="#fff" fill-rule="evenodd"/>
    <path id="Path_29" data-name="Path 29" d="M216.013,26.5c.229-3.3-1.152-6.849-3.808-8.023a4.745,4.745,0,0,0-5.924,1.687c-.761,1.238-.6,3.394.4,4.04a2.209,2.209,0,0,1,.125-1.892c.754-1.152,2.082.017,3-1.878-.7,1.438-.237,3.053,1.617,2.821a.982.982,0,0,1,.316-1.755c2.51-.9,3.964,3.258,3.964,5.03C215.724,26.614,216.007,26.585,216.013,26.5Z" fill="#fff" fill-rule="evenodd"/>
    <path id="Path_30" data-name="Path 30" d="M214.347,21.127a4.714,4.714,0,0,0-3.636-2.236c-1.261,0-1.174,1.282.034,1.25C212.106,20.1,213.273,20.1,214.347,21.127Z" fill="#fff" fill-rule="evenodd"/>
    <path id="Path_31" data-name="Path 31" d="M221.043,21.127a4.741,4.741,0,0,1,3.642-2.236c1.254,0,1.179,1.282-.027,1.249C223.283,20.1,222.126,20.1,221.043,21.127Z" fill="#fff" fill-rule="evenodd"/>
    <path id="Path_32" data-name="Path 32" d="M217.277,18.234a6.029,6.029,0,0,1-.406-1.955.827.827,0,1,1,1.653,0,6.055,6.055,0,0,1-.4,1.955,18.249,18.249,0,0,0-.421,2.129A18.46,18.46,0,0,0,217.277,18.234Z" fill="#fff" fill-rule="evenodd"/>
  </g>
</svg>
